<svg width="22" height="19" viewBox="0 0 22 19" fill="none" xmlns="http://www.w3.org/2000/svg">
<path d="M16.0587 12.521C16.5265 12.2015 17.0752 12.0211 17.6413 12.0004C18.2074 11.9798 18.7678 12.1199 19.2576 12.4044C19.7474 12.689 20.1466 13.1064 20.4091 13.6084C20.6716 14.1104 20.7865 14.6764 20.7407 15.241C19.5409 15.6603 18.2665 15.8235 16.9997 15.72C16.9958 14.5866 16.6695 13.4768 16.0587 12.522C15.5166 11.6718 14.7689 10.972 13.8846 10.4875C13.0003 10.003 12.0081 9.74932 10.9997 9.75C9.99158 9.74948 8.99957 10.0032 8.11547 10.4877C7.23137 10.9723 6.48374 11.6719 5.94174 12.522M16.9987 15.719L16.9997 15.75C16.9997 15.975 16.9877 16.197 16.9627 16.416C15.1481 17.4571 13.0918 18.0033 10.9997 18C8.82974 18 6.79274 17.424 5.03674 16.416C5.01103 16.1846 4.99868 15.9519 4.99974 15.719M4.99974 15.719C3.73337 15.8263 2.45965 15.6637 1.26074 15.242C1.21509 14.6776 1.33014 14.1117 1.59257 13.6099C1.855 13.1081 2.25411 12.6908 2.74374 12.4063C3.23338 12.1218 3.79354 11.9817 4.35946 12.0021C4.92538 12.0226 5.47395 12.2028 5.94174 12.522M4.99974 15.719C5.00333 14.5857 5.33136 13.4769 5.94174 12.522M13.9997 3.75C13.9997 4.54565 13.6837 5.30871 13.1211 5.87132C12.5585 6.43393 11.7954 6.75 10.9997 6.75C10.2041 6.75 9.44103 6.43393 8.87842 5.87132C8.31581 5.30871 7.99974 4.54565 7.99974 3.75C7.99974 2.95435 8.31581 2.19129 8.87842 1.62868C9.44103 1.06607 10.2041 0.75 10.9997 0.75C11.7954 0.75 12.5585 1.06607 13.1211 1.62868C13.6837 2.19129 13.9997 2.95435 13.9997 3.75ZM19.9997 6.75C19.9997 7.04547 19.9415 7.33806 19.8285 7.61104C19.7154 7.88402 19.5497 8.13206 19.3407 8.34099C19.1318 8.54992 18.8838 8.71566 18.6108 8.82873C18.3378 8.9418 18.0452 9 17.7497 9C17.4543 9 17.1617 8.9418 16.8887 8.82873C16.6157 8.71566 16.3677 8.54992 16.1588 8.34099C15.9498 8.13206 15.7841 7.88402 15.671 7.61104C15.5579 7.33806 15.4997 7.04547 15.4997 6.75C15.4997 6.15326 15.7368 5.58097 16.1588 5.15901C16.5807 4.73705 17.153 4.5 17.7497 4.5C18.3465 4.5 18.9188 4.73705 19.3407 5.15901C19.7627 5.58097 19.9997 6.15326 19.9997 6.75ZM6.49974 6.75C6.49974 7.04547 6.44154 7.33806 6.32847 7.61104C6.2154 7.88402 6.04966 8.13206 5.84073 8.34099C5.6318 8.54992 5.38376 8.71566 5.11078 8.82873C4.8378 8.9418 4.54522 9 4.24974 9C3.95427 9 3.66169 8.9418 3.3887 8.82873C3.11572 8.71566 2.86768 8.54992 2.65875 8.34099C2.44982 8.13206 2.28409 7.88402 2.17101 7.61104C2.05794 7.33806 1.99974 7.04547 1.99974 6.75C1.99974 6.15326 2.23679 5.58097 2.65875 5.15901C3.08071 4.73705 3.653 4.5 4.24974 4.5C4.84648 4.5 5.41877 4.73705 5.84073 5.15901C6.26269 5.58097 6.49974 6.15326 6.49974 6.75Z" stroke="#20225C" stroke-width="1.5" stroke-linecap="round" stroke-linejoin="round"/>
</svg>
