<svg width="118" height="115" viewBox="0 0 118 115" fill="none" xmlns="http://www.w3.org/2000/svg">
<path opacity="0.5" d="M69.6431 19.7982C71.2301 19.7982 72.5166 18.5117 72.5166 16.9248C72.5166 15.3378 71.2301 14.0513 69.6431 14.0513C68.0562 14.0513 66.7697 15.3378 66.7697 16.9248C66.7697 18.5117 68.0562 19.7982 69.6431 19.7982Z" fill="#52D1BD"/>
<path d="M89.7347 36.2852C84.8485 21.8236 94.9092 11.9918 84.257 4.56266C68.5276 -6.40791 18.3612 1.87049 3.94469 35.2193C-9.44842 66.1998 12.7022 107.223 48.6439 113.479C83.4767 119.541 124.203 90.7103 116.634 70.7163C112.001 58.4779 98.4624 62.1132 89.7347 36.2852Z" fill="#ECF3FE"/>
<g style="mix-blend-mode:multiply" opacity="0.2">
<path d="M111.779 42.2442L105.144 33.2709L56.9942 26.0614C56.7045 26.0178 56.409 26.0318 56.1247 26.1025C55.8404 26.1732 55.5728 26.2993 55.3372 26.4735C55.1016 26.6477 54.9027 26.8666 54.7518 27.1177C54.6009 27.3689 54.5009 27.6473 54.4577 27.9371L44.0828 97.2271C44.0392 97.5168 44.0532 97.8123 44.1239 98.0966C44.1946 98.381 44.3207 98.6486 44.4949 98.8841C44.6691 99.1197 44.888 99.3186 45.1391 99.4695C45.3902 99.6204 45.6687 99.7204 45.9584 99.7636L99.7067 107.812C99.9964 107.855 100.292 107.841 100.576 107.77C100.86 107.7 101.128 107.573 101.363 107.399C101.599 107.225 101.798 107.006 101.949 106.755C102.1 106.504 102.2 106.226 102.243 105.936L111.539 43.841L111.779 42.2442Z" fill="#3A7EC1"/>
</g>
<path d="M105.702 32.8766L58.0841 22.7389C57.7976 22.6777 57.5018 22.6736 57.2137 22.7268C56.9256 22.78 56.6508 22.8895 56.4051 23.049C56.1593 23.2085 55.9474 23.4148 55.7814 23.6562C55.6154 23.8977 55.4987 24.1694 55.4378 24.456L40.8484 92.9842C40.7872 93.2708 40.7832 93.5665 40.8365 93.8546C40.8897 94.1427 40.9992 94.4174 41.1587 94.6632C41.3183 94.9089 41.5246 95.1208 41.7661 95.2867C42.0075 95.4526 42.2793 95.5693 42.5659 95.6302L95.7218 106.946C96.0084 107.007 96.3041 107.011 96.5922 106.958C96.8803 106.905 97.1551 106.795 97.4009 106.636C97.6467 106.476 97.8586 106.27 98.0246 106.028C98.1905 105.787 98.3073 105.515 98.3682 105.229L111.777 42.2382L105.702 32.8766Z" fill="#20225C"/>
<path d="M104.523 38.4138C104.462 38.7003 104.458 38.996 104.511 39.2841C104.565 39.5722 104.674 39.8469 104.834 40.0927C104.993 40.3384 105.199 40.5503 105.441 40.7162C105.682 40.8821 105.954 40.9988 106.241 41.0597L111.778 42.2375L105.702 32.8759L104.523 38.4138Z" fill="#9FCBFF"/>
<path d="M103.05 44.9851L75.0255 39.0194C74.8523 38.9827 74.6882 38.9122 74.5423 38.8119C74.3965 38.7117 74.2718 38.5837 74.1755 38.4352C74.0792 38.2867 74.0131 38.1207 73.981 37.9467C73.949 37.7726 73.9515 37.594 73.9886 37.4209C74.0253 37.2478 74.0958 37.0837 74.196 36.9378C74.2963 36.792 74.4243 36.6673 74.5728 36.571C74.7212 36.4747 74.8872 36.4086 75.0613 36.3765C75.2353 36.3445 75.414 36.347 75.587 36.384L103.612 42.3514C103.785 42.3881 103.949 42.4586 104.095 42.5589C104.241 42.6591 104.365 42.7871 104.462 42.9356C104.558 43.0841 104.624 43.2501 104.656 43.4241C104.688 43.5982 104.686 43.7768 104.649 43.9499C104.612 44.1228 104.541 44.2867 104.441 44.4324C104.34 44.578 104.212 44.7024 104.064 44.7985C103.916 44.8947 103.75 44.9606 103.576 44.9926C103.402 45.0247 103.223 45.0221 103.05 44.9851Z" fill="#B3CEF6"/>
<path d="M101.611 51.7496L73.5855 45.7839C73.4124 45.7472 73.2482 45.6768 73.1023 45.5765C72.9564 45.4763 72.8317 45.3483 72.7354 45.1998C72.639 45.0514 72.5729 44.8853 72.5408 44.7113C72.5087 44.5372 72.5112 44.3585 72.5482 44.1855C72.5849 44.0123 72.6554 43.8481 72.7556 43.7022C72.8558 43.5563 72.9838 43.4316 73.1323 43.3353C73.2808 43.2389 73.4468 43.1728 73.6209 43.1407C73.7949 43.1086 73.9736 43.1111 74.1467 43.1481L102.171 49.1138C102.344 49.1505 102.509 49.221 102.655 49.3212C102.8 49.4214 102.925 49.5494 103.021 49.6979C103.118 49.8464 103.184 50.0124 103.216 50.1864C103.248 50.3605 103.246 50.5392 103.209 50.7123C103.172 50.8854 103.101 51.0496 103.001 51.1954C102.901 51.3413 102.773 51.4659 102.625 51.5623C102.476 51.6586 102.31 51.7248 102.136 51.7569C101.962 51.7891 101.784 51.7866 101.611 51.7496Z" fill="#B3CEF6"/>
<path d="M100.17 58.5145L58.2314 49.5866C58.0583 49.5499 57.894 49.4795 57.7482 49.3792C57.6023 49.279 57.4776 49.151 57.3812 49.0025C57.2849 48.8541 57.2188 48.688 57.1866 48.514C57.1545 48.3399 57.1571 48.1612 57.1941 47.9882C57.2308 47.815 57.3013 47.6508 57.4015 47.5049C57.5017 47.359 57.6297 47.2343 57.7782 47.138C57.9267 47.0416 58.0927 46.9755 58.2667 46.9434C58.4408 46.9113 58.6195 46.9138 58.7926 46.9508L100.731 55.8787C100.905 55.9154 101.069 55.9859 101.215 56.0861C101.361 56.1863 101.485 56.3143 101.582 56.4628C101.678 56.6113 101.744 56.7773 101.776 56.9514C101.808 57.1254 101.806 57.3041 101.769 57.4772C101.732 57.6504 101.662 57.8146 101.561 57.9605C101.461 58.1063 101.333 58.231 101.185 58.3274C101.036 58.4237 100.87 58.4899 100.696 58.522C100.522 58.5541 100.343 58.5516 100.17 58.5145Z" fill="#B3CEF6"/>
<path d="M98.7299 65.2789L56.791 56.351C56.6178 56.3143 56.4536 56.2438 56.3077 56.1436C56.1618 56.0434 56.0372 55.9154 55.9408 55.7669C55.8444 55.6184 55.7783 55.4524 55.7462 55.2783C55.7141 55.1043 55.7166 54.9256 55.7537 54.7525C55.7903 54.5794 55.8608 54.4151 55.961 54.2693C56.0613 54.1234 56.1893 53.9987 56.3378 53.9023C56.4862 53.806 56.6523 53.7399 56.8263 53.7077C57.0004 53.6756 57.1791 53.6782 57.3521 53.7152L99.291 62.6431C99.4642 62.6798 99.6284 62.7502 99.7743 62.8505C99.9202 62.9507 100.045 63.0787 100.141 63.2272C100.238 63.3757 100.304 63.5417 100.336 63.7157C100.368 63.8898 100.365 64.0685 100.328 64.2416C100.292 64.4147 100.221 64.5789 100.121 64.7248C100.021 64.8707 99.8927 64.9954 99.7443 65.0918C99.5958 65.1881 99.4298 65.2542 99.2557 65.2863C99.0816 65.3184 98.903 65.3159 98.7299 65.2789Z" fill="#B3CEF6"/>
<path d="M86.5731 69.7619L55.3503 63.1156C55.1772 63.079 55.0129 63.0085 54.8671 62.9082C54.7212 62.808 54.5965 62.68 54.5001 62.5315C54.4038 62.3831 54.3377 62.217 54.3055 62.043C54.2734 61.8689 54.276 61.6902 54.313 61.5172C54.3497 61.344 54.4201 61.1798 54.5204 61.0339C54.6206 60.888 54.7486 60.7633 54.8971 60.667C55.0456 60.5706 55.2116 60.5045 55.3856 60.4724C55.5597 60.4403 55.7384 60.4428 55.9115 60.4798L87.1339 67.1261C87.307 67.1628 87.4712 67.2333 87.6171 67.3335C87.763 67.4337 87.8877 67.5617 87.984 67.7102C88.0804 67.8587 88.1465 68.0247 88.1786 68.1988C88.2107 68.3728 88.2082 68.5515 88.1712 68.7246C88.1345 68.8977 88.064 69.0619 87.9638 69.2077C87.8636 69.3536 87.7357 69.4782 87.5872 69.5746C87.4388 69.6709 87.2728 69.7371 87.0988 69.7692C86.9248 69.8014 86.7462 69.7989 86.5731 69.7619Z" fill="#B3CEF6"/>
<path d="M95.8506 78.8079L53.9117 69.88C53.7386 69.8433 53.5743 69.7728 53.4285 69.6726C53.2826 69.5724 53.1579 69.4444 53.0615 69.2959C52.9652 69.1474 52.8991 68.9814 52.8669 68.8073C52.8348 68.6333 52.8374 68.4546 52.8744 68.2815C52.9111 68.1084 52.9815 67.9442 53.0818 67.7983C53.182 67.6524 53.31 67.5277 53.4585 67.4313C53.607 67.335 53.773 67.2689 53.947 67.2367C54.1211 67.2046 54.2998 67.2072 54.4729 67.2442L96.4118 76.1721C96.5849 76.2088 96.7491 76.2792 96.895 76.3795C97.0409 76.4797 97.1656 76.6077 97.2619 76.7562C97.3583 76.9047 97.4244 77.0707 97.4565 77.2447C97.4886 77.4188 97.4861 77.5975 97.4491 77.7706C97.4124 77.9437 97.3419 78.1079 97.2417 78.2538C97.1415 78.3997 97.0135 78.5244 96.865 78.6208C96.7165 78.7171 96.5505 78.7832 96.3764 78.8153C96.2024 78.8475 96.0237 78.8449 95.8506 78.8079Z" fill="#B3CEF6"/>
<path d="M94.4107 85.5729L52.4718 76.645C52.2986 76.6083 52.1344 76.5379 51.9885 76.4376C51.8426 76.3374 51.7179 76.2094 51.6216 76.0609C51.5252 75.9125 51.4591 75.7464 51.427 75.5724C51.3949 75.3983 51.3974 75.2196 51.4345 75.0466C51.4711 74.8734 51.5416 74.7092 51.6418 74.5633C51.7421 74.4174 51.8701 74.2927 52.0185 74.1964C52.167 74.1 52.333 74.0339 52.5071 74.0018C52.6812 73.9697 52.8598 73.9722 53.0329 74.0092L94.9718 82.9371C95.145 82.9738 95.3092 83.0443 95.4551 83.1445C95.601 83.2447 95.7257 83.3727 95.822 83.5212C95.9184 83.6697 95.9845 83.8357 96.0166 84.0098C96.0487 84.1838 96.0462 84.3625 96.0091 84.5356C95.9725 84.7088 95.902 84.873 95.8018 85.0189C95.7015 85.1647 95.5735 85.2894 95.425 85.3858C95.2766 85.4821 95.1106 85.5483 94.9365 85.5804C94.7624 85.6125 94.5838 85.6099 94.4107 85.5729Z" fill="#B3CEF6"/>
<path d="M92.9704 92.3374L51.0315 83.4095C50.8583 83.3728 50.6941 83.3024 50.5482 83.2021C50.4023 83.1019 50.2776 82.9739 50.1813 82.8254C50.0849 82.677 50.0188 82.5109 49.9867 82.3369C49.9546 82.1628 49.9571 81.9841 49.9941 81.811C50.0309 81.6379 50.1014 81.4738 50.2016 81.3279C50.3019 81.1821 50.4299 81.0574 50.5784 80.9611C50.7268 80.8648 50.8928 80.7987 51.0669 80.7666C51.2409 80.7346 51.4196 80.7371 51.5926 80.7741L93.5315 89.702C93.7047 89.7387 93.8689 89.8092 94.0148 89.9094C94.1607 90.0096 94.2853 90.1377 94.3817 90.2861C94.4781 90.4346 94.5442 90.6006 94.5763 90.7747C94.6084 90.9487 94.6059 91.1274 94.5688 91.3005C94.5321 91.4736 94.4616 91.6378 94.3614 91.7836C94.2611 91.9295 94.1331 92.0541 93.9846 92.1504C93.8361 92.2467 93.6701 92.3128 93.4961 92.3449C93.3221 92.377 93.1434 92.3745 92.9704 92.3374Z" fill="#B3CEF6"/>
<path d="M91.5305 99.1019L49.5916 90.174C49.4185 90.1373 49.2543 90.0669 49.1084 89.9666C48.9625 89.8664 48.8378 89.7384 48.7415 89.5899C48.6451 89.4415 48.579 89.2754 48.5469 89.1014C48.5148 88.9273 48.5173 88.7486 48.5543 88.5756C48.591 88.4024 48.6615 88.2382 48.7617 88.0923C48.8619 87.9464 48.9899 87.8217 49.1384 87.7254C49.2869 87.629 49.4529 87.5629 49.627 87.5308C49.801 87.4987 49.9797 87.5012 50.1528 87.5382L92.0917 96.4661C92.2648 96.5028 92.4291 96.5733 92.575 96.6735C92.7208 96.7737 92.8455 96.9017 92.9419 97.0502C93.0382 97.1987 93.1044 97.3647 93.1365 97.5388C93.1686 97.7128 93.166 97.8915 93.129 98.0646C93.0923 98.2377 93.0219 98.402 92.9216 98.5479C92.8214 98.6937 92.6934 98.8184 92.5449 98.9148C92.3965 99.0111 92.2304 99.0773 92.0564 99.1094C91.8823 99.1415 91.7036 99.139 91.5305 99.1019Z" fill="#B3CEF6"/>
<path d="M59.2481 42.7321L67.6527 44.5211C67.7704 44.5462 67.8919 44.5478 68.0102 44.5259C68.1285 44.5041 68.2414 44.4591 68.3423 44.3936C68.4433 44.3281 68.5303 44.2433 68.5985 44.1442C68.6667 44.045 68.7147 43.9334 68.7397 43.8157L70.3592 36.2078C70.3843 36.0901 70.3859 35.9686 70.364 35.8503C70.3421 35.732 70.2971 35.6191 70.2316 35.5182C70.1661 35.4173 70.0814 35.3302 69.9822 35.262C69.8831 35.1939 69.7715 35.1459 69.6538 35.1209L61.25 33.3318C61.1323 33.3068 61.0109 33.3051 60.8926 33.327C60.7743 33.3489 60.6615 33.3939 60.5606 33.4594C60.4597 33.5249 60.3727 33.6097 60.3045 33.7088C60.2364 33.808 60.1885 33.9196 60.1635 34.0373L58.544 41.6451C58.4933 41.8827 58.539 42.1306 58.6711 42.3344C58.8031 42.5382 59.0107 42.6813 59.2481 42.7321Z" fill="#B3CEF6"/>
<path d="M106.035 41.0163L111.442 43.8174L111.778 42.2383L106.035 41.0163Z" fill="#1E6AD8"/>
<g style="mix-blend-mode:multiply" opacity="0.2">
<path d="M87.2676 95.1991L74.5282 14.1973C74.4754 13.8584 74.3563 13.5332 74.1777 13.2404C73.9991 12.9476 73.7645 12.6929 73.4873 12.4909C73.2101 12.2889 72.8958 12.1435 72.5624 12.0631C72.2289 11.9828 71.8829 11.969 71.5441 12.0225L8.71066 21.9078C8.37176 21.961 8.04668 22.0805 7.754 22.2595C7.46131 22.4384 7.20677 22.6733 7.00491 22.9506C6.80305 23.228 6.65784 23.5424 6.57758 23.876C6.49732 24.2095 6.48358 24.5556 6.53716 24.8944L19.2761 105.896C19.3294 106.235 19.449 106.56 19.6279 106.852C19.8069 107.145 20.0417 107.4 20.3191 107.601C20.5964 107.803 20.9109 107.948 21.2444 108.029C21.5779 108.109 21.9239 108.123 22.2628 108.069L85.0954 98.1874C85.4343 98.134 85.7594 98.0143 86.0521 97.8352C86.3448 97.6561 86.5992 97.4211 86.801 97.1435C87.0027 96.866 87.1478 96.5514 87.2279 96.2177C87.3079 95.8841 87.3214 95.5379 87.2676 95.1991Z" fill="#3A7EC1"/>
</g>
<path d="M85.2855 97.9261L21.999 104.283C21.6578 104.318 21.3131 104.285 20.9846 104.186C20.6561 104.088 20.3502 103.925 20.0846 103.708C19.8189 103.491 19.5986 103.224 19.4363 102.922C19.274 102.62 19.1728 102.288 19.1386 101.947L10.9448 20.3607C10.9103 20.0194 10.9434 19.6747 11.0421 19.3462C11.1409 19.0177 11.3035 18.7119 11.5205 18.4463C11.7375 18.1807 12.0047 17.9604 12.3068 17.7981C12.609 17.6357 12.9402 17.5345 13.2815 17.5002L76.568 11.1446C76.9091 11.1104 77.2536 11.1436 77.5819 11.2425C77.9101 11.3414 78.2157 11.504 78.4811 11.721C78.7465 11.938 78.9666 12.2051 79.1288 12.5072C79.2909 12.8092 79.3921 13.1402 79.4263 13.4813L87.6218 95.0678C87.691 95.7567 87.4837 96.4448 87.0456 96.9808C86.6075 97.5168 85.9744 97.8569 85.2855 97.9261Z" fill="white"/>
<path d="M71.3409 26.2493L37.9753 29.601C37.5595 29.6424 37.1443 29.517 36.8209 29.2523C36.4975 28.9877 36.2924 28.6055 36.2507 28.1898C36.2093 27.774 36.3347 27.3587 36.5994 27.0354C36.864 26.712 37.2462 26.5069 37.6619 26.4651L71.0275 23.1133C71.4434 23.0719 71.8587 23.1973 72.1821 23.4619C72.5055 23.7266 72.7106 24.1088 72.7522 24.5246C72.7935 24.9404 72.6681 25.3557 72.4035 25.679C72.1389 26.0024 71.7567 26.2075 71.3409 26.2493Z" fill="#E4ECF9"/>
<path d="M72.1502 34.3032L38.7847 37.6549C38.3689 37.6961 37.9537 37.5707 37.6304 37.3061C37.307 37.0415 37.1019 36.6594 37.06 36.2436C37.0186 35.8278 37.1441 35.4126 37.4087 35.0892C37.6733 34.7658 38.0555 34.5607 38.4713 34.519L71.8369 31.1672C72.2527 31.126 72.6678 31.2515 72.9912 31.5161C73.3145 31.7807 73.5197 32.1628 73.5615 32.5785C73.6029 32.9943 73.4775 33.4095 73.2128 33.7329C72.9482 34.0563 72.566 34.2614 72.1502 34.3032Z" fill="#E4ECF9"/>
<path d="M72.9592 42.3569L23.0259 47.3732C22.61 47.4144 22.1948 47.2888 21.8714 47.0242C21.5481 46.7595 21.343 46.3772 21.3012 45.9614C21.2599 45.5456 21.3853 45.1304 21.6499 44.807C21.9145 44.4837 22.2967 44.2785 22.7125 44.2368L72.6458 39.2209C73.0616 39.1796 73.4769 39.305 73.8002 39.5697C74.1236 39.8343 74.3287 40.2165 74.3705 40.6322C74.4118 41.048 74.2864 41.4632 74.0218 41.7866C73.7572 42.11 73.375 42.3151 72.9592 42.3569Z" fill="#E4ECF9"/>
<path d="M73.7682 50.4107L23.8369 55.4265C23.4211 55.4677 23.006 55.3423 22.6826 55.0777C22.3592 54.8131 22.1541 54.431 22.1122 54.0152C22.0709 53.5994 22.1963 53.1842 22.4609 52.8608C22.7256 52.5374 23.1078 52.3323 23.5235 52.2906L73.4531 47.273C73.8689 47.2317 74.2841 47.3571 74.6075 47.6218C74.9309 47.8864 75.136 48.2686 75.1778 48.6843C75.2196 49.1002 75.0946 49.5156 74.8303 49.8393C74.566 50.163 74.1839 50.3685 73.7682 50.4107Z" fill="#E4ECF9"/>
<path d="M61.8166 59.7462L24.6441 63.4804C24.2283 63.5218 23.813 63.3964 23.4896 63.1318C23.1662 62.8671 22.9611 62.4849 22.9195 62.0691C22.8781 61.6533 23.0036 61.2381 23.2682 60.9147C23.5328 60.5913 23.915 60.3862 24.3308 60.3444L61.5024 56.6086C61.9185 56.5668 62.3342 56.692 62.6581 56.9567C62.9819 57.2213 63.1873 57.6038 63.2292 58.0199C63.2498 58.226 63.2297 58.4342 63.1698 58.6325C63.11 58.8308 63.0117 59.0154 62.8805 59.1757C62.7494 59.336 62.5879 59.4689 62.4053 59.5668C62.2228 59.6647 62.0228 59.7257 61.8166 59.7462Z" fill="#E4ECF9"/>
<path d="M75.3863 66.5182L25.4525 71.534C25.0367 71.5754 24.6215 71.45 24.2981 71.1853C23.9747 70.9207 23.7696 70.5385 23.7278 70.1228C23.6865 69.7069 23.8119 69.2917 24.0765 68.9683C24.3412 68.645 24.7234 68.4399 25.1391 68.3981L75.0725 63.3822C75.4883 63.3409 75.9035 63.4663 76.2269 63.731C76.5503 63.9956 76.7554 64.3778 76.7971 64.7935C76.8385 65.2093 76.7131 65.6244 76.4486 65.9478C76.184 66.2712 75.802 66.4763 75.3863 66.5182Z" fill="#E4ECF9"/>
<path d="M76.1953 74.5732L26.264 79.5891C25.8482 79.6303 25.4331 79.5048 25.1097 79.2402C24.7864 78.9756 24.5812 78.5935 24.5394 78.1778C24.498 77.762 24.6234 77.3468 24.8881 77.0234C25.1527 76.7 25.5349 76.4949 25.9506 76.4531L75.8802 71.4339C76.2961 71.3927 76.7113 71.5182 77.0346 71.7829C77.358 72.0476 77.5631 72.4298 77.6049 72.8456C77.6258 73.0516 77.6059 73.2597 77.5463 73.458C77.4868 73.6563 77.3888 73.841 77.2579 74.0014C77.127 74.1618 76.9658 74.2949 76.7835 74.393C76.6011 74.4911 76.4013 74.5524 76.1953 74.5732Z" fill="#E4ECF9"/>
<path d="M77.0046 82.6258L27.0712 87.6416C26.6554 87.6828 26.2403 87.5574 25.9169 87.2928C25.5936 87.0282 25.3884 86.646 25.3466 86.2303C25.3053 85.8145 25.4309 85.3993 25.6956 85.0759C25.9603 84.7525 26.3425 84.5474 26.7583 84.5057L76.6895 79.4894C77.1054 79.4483 77.5205 79.5738 77.8438 79.8385C78.1672 80.1032 78.3723 80.4853 78.4142 80.9011C78.4554 81.3166 78.3302 81.7315 78.0659 82.0549C77.8017 82.3782 77.42 82.5835 77.0046 82.6258Z" fill="#E4ECF9"/>
<path d="M77.8135 90.6795L27.8801 95.6953C27.4643 95.7367 27.0491 95.6112 26.7257 95.3466C26.4023 95.082 26.1972 94.6998 26.1554 94.2841C26.1141 93.8682 26.2395 93.453 26.5042 93.1296C26.7688 92.8063 27.151 92.6011 27.5667 92.5594L77.5001 87.5431C77.9159 87.5019 78.331 87.6274 78.6544 87.892C78.9777 88.1566 79.1829 88.5387 79.2248 88.9544C79.2661 89.3703 79.1407 89.7855 78.8761 90.109C78.6115 90.4324 78.2293 90.6376 77.8135 90.6795Z" fill="#E4ECF9"/>
<path d="M30.5999 27.1688L20.5938 28.1746C20.0046 28.2338 19.575 28.7595 19.6342 29.3487L20.5447 38.4063C20.6039 38.9956 21.1296 39.4252 21.7188 39.366L31.7249 38.3602C32.3141 38.3009 32.7437 37.7753 32.6845 37.1861L31.774 28.1284C31.7148 27.5392 31.1891 27.1096 30.5999 27.1688Z" fill="#F58042"/>
<path d="M59.7508 110.29C60.6057 110.29 61.2987 109.597 61.2987 108.742C61.2987 107.887 60.6057 107.194 59.7508 107.194C58.8958 107.194 58.2028 107.887 58.2028 108.742C58.2028 109.597 58.8958 110.29 59.7508 110.29Z" fill="#F58042"/>
<path d="M102.079 21.1833C103.666 21.1833 104.953 19.8968 104.953 18.3098C104.953 16.7229 103.666 15.4364 102.079 15.4364C100.492 15.4364 99.2057 16.7229 99.2057 18.3098C99.2057 19.8968 100.492 21.1833 102.079 21.1833Z" fill="#F58042"/>
</svg>
