<svg width="24" height="24" viewBox="0 0 24 24" fill="none" xmlns="http://www.w3.org/2000/svg">
<path d="M9.40767 6.52322C10.8389 5.27044 13.1611 5.27044 14.5923 6.52322C16.0248 7.776 16.0248 9.80733 14.5923 11.0601C14.3442 11.2789 14.0668 11.4586 13.7734 11.6003C12.8629 12.0416 12.0012 12.8213 12.0012 13.8333V14.75M23 12C23 13.4445 22.7155 14.8749 22.1627 16.2095C21.6099 17.5441 20.7996 18.7567 19.7782 19.7782C18.7567 20.7996 17.5441 21.6099 16.2095 22.1627C14.8749 22.7155 13.4445 23 12 23C10.5555 23 9.12506 22.7155 7.79048 22.1627C6.4559 21.6099 5.24327 20.7996 4.22183 19.7782C3.20038 18.7567 2.39013 17.5441 1.83733 16.2095C1.28452 14.8749 1 13.4445 1 12C1 9.08262 2.15893 6.28473 4.22183 4.22183C6.28473 2.15893 9.08262 1 12 1C14.9174 1 17.7153 2.15893 19.7782 4.22183C21.8411 6.28473 23 9.08262 23 12ZM12 18.4167H12.0098V18.4264H12V18.4167Z" stroke="#20225C" stroke-width="1.5" stroke-linecap="round" stroke-linejoin="round"/>
</svg>
