<svg width="18" height="17" viewBox="0 0 18 17" fill="none" xmlns="http://www.w3.org/2000/svg">
<path d="M9 0.431993L17.159 8.59099C17.189 8.62099 17.219 8.64899 17.25 8.67699V14.875C17.25 15.91 16.41 16.75 15.375 16.75H12C11.8011 16.75 11.6103 16.671 11.4697 16.5303C11.329 16.3897 11.25 16.1989 11.25 16V11.5C11.25 11.3011 11.171 11.1103 11.0303 10.9697C10.8897 10.829 10.6989 10.75 10.5 10.75H7.5C7.30109 10.75 7.11032 10.829 6.96967 10.9697C6.82902 11.1103 6.75 11.3011 6.75 11.5V16C6.75 16.1989 6.67098 16.3897 6.53033 16.5303C6.38968 16.671 6.19891 16.75 6 16.75H2.625C2.12772 16.75 1.65081 16.5524 1.29917 16.2008C0.947544 15.8492 0.75 15.3723 0.75 14.875V8.67699C0.781111 8.64916 0.811456 8.62048 0.841 8.59099L9 0.429993V0.431993Z" fill="#F58042"/>
</svg>
