<svg width="20" height="22" viewBox="0 0 20 22" fill="none" xmlns="http://www.w3.org/2000/svg">
<path d="M5.21669 9.90679C4.97455 9.47111 4.59459 9.12816 4.13646 8.93178C3.67832 8.7354 3.16794 8.69671 2.68544 8.82177C2.20293 8.94684 1.77562 9.22859 1.47057 9.6228C1.16552 10.017 1 10.5013 1 10.9998C1 11.4982 1.16552 11.9826 1.47057 12.3768C1.77562 12.771 2.20293 13.0527 2.68544 13.1778C3.16794 13.3029 3.67832 13.2642 4.13646 13.0678C4.59459 12.8714 4.97455 12.5285 5.21669 12.0928M5.21669 9.90679C5.39669 10.2308 5.49969 10.6028 5.49969 10.9998C5.49969 11.3968 5.39669 11.7698 5.21669 12.0928M5.21669 9.90679L14.7827 4.59279M5.21669 12.0928L14.7827 17.4068M14.7827 4.59279C14.9229 4.85693 15.1144 5.09046 15.346 5.27972C15.5776 5.46899 15.8445 5.61019 16.1313 5.69507C16.4181 5.77995 16.7189 5.80682 17.0161 5.77409C17.3134 5.74136 17.6012 5.6497 17.8626 5.50446C18.124 5.35922 18.3539 5.16332 18.5387 4.92821C18.7236 4.6931 18.8597 4.4235 18.9391 4.13518C19.0185 3.84685 19.0397 3.54559 19.0013 3.24899C18.963 2.95239 18.8659 2.66642 18.7157 2.40779C18.4198 1.89814 17.9357 1.52493 17.3675 1.36841C16.7993 1.21188 16.1924 1.28454 15.6772 1.57075C15.162 1.85696 14.7797 2.33388 14.6124 2.89899C14.4452 3.4641 14.5063 4.07228 14.7827 4.59279ZM14.7827 17.4068C14.6392 17.6652 14.5479 17.9493 14.5142 18.2429C14.4804 18.5366 14.5049 18.834 14.5861 19.1182C14.6673 19.4024 14.8037 19.6678 14.9875 19.8993C15.1712 20.1307 15.3988 20.3238 15.6572 20.4673C15.9156 20.6108 16.1997 20.7021 16.4933 20.7358C16.787 20.7695 17.0844 20.7451 17.3685 20.6639C17.6527 20.5827 17.9182 20.4463 18.1496 20.2625C18.3811 20.0787 18.5742 19.8512 18.7177 19.5928C19.0076 19.071 19.0783 18.4554 18.9143 17.8814C18.7503 17.3075 18.365 16.8222 17.8432 16.5323C17.3214 16.2424 16.7058 16.1717 16.1318 16.3357C15.5579 16.4997 15.0726 16.885 14.7827 17.4068Z" stroke="#20225C" stroke-width="1.5" stroke-linecap="round" stroke-linejoin="round"/>
</svg>
