<svg width="74" height="80" viewBox="0 0 74 80" fill="none" xmlns="http://www.w3.org/2000/svg">
<path d="M0 58.6987C0 58.5095 0.0611546 58.3559 0.183464 58.24C0.305773 58.1242 0.465716 58.0651 0.665645 58.0651C0.809123 58.0651 0.94084 58.11 1.05609 58.1999C1.1737 58.2897 1.25367 58.4055 1.29836 58.5497L4.87355 69.2634L8.61574 58.4646C8.66043 58.3417 8.7357 58.2448 8.8392 58.1715C8.94504 58.0982 9.06264 58.0627 9.19671 58.0627C9.39664 58.0627 9.54953 58.1147 9.65537 58.2211C9.76122 58.3275 9.81296 58.4694 9.81296 58.6467C9.81296 58.7365 9.7965 58.831 9.76357 58.9303L5.67091 70.313C5.58153 70.5589 5.48039 70.7385 5.36279 70.8567C5.24518 70.9726 5.07113 71.0317 4.83827 71.0317C4.47134 71.0317 4.20556 70.7976 4.04091 70.3295L0.0658588 59.0296C0.0235209 58.8783 0 58.7672 0 58.6987Z" fill="#F58042"/>
<path d="M10.4269 66.9727V65.8687C10.4269 64.5992 10.7562 63.5898 11.4171 62.8428C12.0757 62.0957 12.9671 61.7222 14.0867 61.7222C15.2181 61.7222 16.1048 62.0603 16.747 62.734C17.3891 63.4078 17.7113 64.3983 17.7113 65.7008V66.4195C17.7113 66.5637 17.6666 66.6843 17.5772 66.7788C17.4879 66.8734 17.3726 66.9207 17.2291 66.9207H11.5912V67.0554C11.5912 67.9585 11.8358 68.6889 12.3227 69.2445C12.8095 69.8024 13.5316 70.0813 14.4842 70.0813C15.3592 70.0813 16.1189 69.9206 16.7634 69.5967C16.9069 69.54 17.008 69.514 17.0621 69.514C17.2174 69.514 17.3397 69.5565 17.4291 69.6393C17.5184 69.722 17.5631 69.8473 17.5631 70.0151C17.5631 70.2161 17.4691 70.3721 17.2809 70.4832C16.9257 70.696 16.4882 70.8544 15.9661 70.9607C15.4439 71.0671 14.917 71.1191 14.3854 71.1191C13.1435 71.1191 12.1745 70.7551 11.4759 70.0246C10.7773 69.2941 10.4269 68.2776 10.4269 66.9727ZM16.547 65.6536C16.547 63.7245 15.7261 62.7624 14.0867 62.7624C13.3341 62.7624 12.7296 63.0106 12.2733 63.507C11.8193 64.0035 11.5912 64.7623 11.5912 65.7883V65.9231H16.547V65.6536Z" fill="#F58042"/>
<path d="M20.555 61.7411C20.7102 61.7411 20.8467 61.8002 20.9619 61.9161C21.0795 62.0343 21.136 62.169 21.136 62.325V63.5283C21.4465 62.9822 21.8251 62.5449 22.2744 62.2163C22.7236 61.8877 23.1964 61.7222 23.6974 61.7222C23.9091 61.7222 24.0643 61.7695 24.1631 61.8641C24.2619 61.9586 24.3137 62.0839 24.3137 62.2399C24.3137 62.63 24.1184 62.8238 23.7303 62.8238C23.2764 62.8238 22.8577 62.9491 22.4743 63.1997C22.0909 63.4503 21.7805 63.7907 21.5429 64.2186C21.3053 64.6489 21.1689 65.124 21.136 65.6488V70.5139C21.136 70.6818 21.0772 70.8213 20.9619 70.9324C20.8467 71.0435 20.7102 71.1002 20.555 71.1002C20.388 71.1002 20.2492 71.0435 20.1387 70.9324C20.0281 70.8213 19.9717 70.6818 19.9717 70.5139V62.3227C19.9717 62.1667 20.0281 62.0295 20.1387 61.9137C20.2492 61.8002 20.388 61.7411 20.555 61.7411Z" fill="#F58042"/>
<path d="M26.7316 59.3606C26.8492 59.2424 26.9833 59.1856 27.1385 59.1856C27.3055 59.1856 27.4467 59.2447 27.5619 59.3606C27.6795 59.4764 27.736 59.6135 27.736 59.7695V61.9421H29.7141C29.8576 61.9421 29.9775 61.9917 30.0716 62.0934C30.1657 62.1926 30.2127 62.3227 30.2127 62.4787C30.2127 62.6229 30.1657 62.7458 30.0716 62.8475C29.9775 62.9468 29.8576 62.9988 29.7141 62.9988H27.736V68.1145C27.736 68.8048 27.8559 69.3107 28.0935 69.6274C28.331 69.9442 28.7403 70.1026 29.3166 70.1026C29.406 70.1026 29.5659 70.0861 29.7988 70.053C29.9658 70.0317 30.1045 70.0671 30.2151 70.1617C30.3256 70.2563 30.3821 70.3768 30.3821 70.521C30.3821 70.8331 30.2151 71.0175 29.8834 71.0718C29.7846 71.0931 29.6176 71.1049 29.3848 71.1049C28.4322 71.1049 27.7219 70.8709 27.2561 70.4028C26.7904 69.9348 26.5576 69.1948 26.5576 68.1807V62.9988H25.4262C25.2827 62.9988 25.1604 62.9491 25.0616 62.8475C24.9605 62.7482 24.9111 62.6253 24.9111 62.4787C24.9111 62.3321 24.9605 62.2092 25.0616 62.1028C25.1604 61.9964 25.2827 61.9444 25.4262 61.9444H26.5576V59.7719C26.5576 59.6135 26.6164 59.4764 26.7316 59.3606Z" fill="#F58042"/>
<path d="M35.305 61.7246C36.0483 61.7246 36.7045 61.883 37.2761 62.2021C37.8477 62.5189 38.2945 62.987 38.6144 63.6063C38.9367 64.2257 39.0966 64.9751 39.0966 65.8545V66.9916C39.0966 67.871 38.9367 68.6204 38.6144 69.2397C38.2922 69.8591 37.8477 70.3272 37.2761 70.644C36.7045 70.9607 36.0483 71.1215 35.305 71.1215C34.1737 71.1215 33.2658 70.7622 32.5766 70.0435C31.8898 69.3248 31.544 68.3083 31.544 66.9939V65.8569C31.544 64.5425 31.8874 63.526 32.5766 62.8073C33.2658 62.0839 34.1737 61.7246 35.305 61.7246ZM35.305 70.0648C36.1259 70.0648 36.768 69.8024 37.2337 69.2799C37.6995 68.7575 37.9323 68.0199 37.9323 67.0743V65.7694C37.9323 64.812 37.6971 64.0697 37.2267 63.5472C36.7563 63.0224 36.1142 62.7624 35.305 62.7624C34.4959 62.7624 33.8585 63.0248 33.3928 63.5472C32.9271 64.072 32.6942 64.812 32.6942 65.7694V67.0743C32.6942 68.0223 32.9271 68.7575 33.3928 69.2799C33.8585 69.8024 34.4959 70.0648 35.305 70.0648Z" fill="#F58042"/>
<path d="M49.5188 69.5967C49.6199 69.696 49.6693 69.826 49.6693 69.982C49.6693 70.1499 49.5705 70.3059 49.3706 70.4501C49.0484 70.6629 48.6132 70.826 48.0652 70.9442C47.5171 71.0624 46.955 71.1191 46.3764 71.1191C44.7793 71.1191 43.5209 70.6321 42.6012 69.6558C41.6816 68.6818 41.2206 67.2634 41.2206 65.4006V63.8616C41.2206 62.6253 41.4346 61.5709 41.8603 60.7033C42.2861 59.8334 42.8858 59.1762 43.6573 58.7318C44.4288 58.285 45.3344 58.0627 46.3764 58.0627C46.8985 58.0627 47.416 58.1195 47.9311 58.2306C48.4462 58.3417 48.8814 58.4977 49.2365 58.6987C49.5141 58.8429 49.6528 59.0273 49.6528 59.2495C49.6528 59.4055 49.6011 59.5355 49.4953 59.6419C49.3894 59.7483 49.2647 59.8003 49.1213 59.8003C49.0437 59.8003 48.8931 59.7506 48.672 59.649C48.3404 59.5048 48.0087 59.3866 47.6818 59.2991C47.3548 59.2093 46.9244 59.1644 46.3928 59.1644C45.1956 59.1644 44.2454 59.5521 43.5397 60.3251C42.8365 61.1005 42.4836 62.2399 42.4836 63.7434V65.5141C42.4836 67.0081 42.82 68.1263 43.4903 68.8733C44.1607 69.6204 45.118 69.9939 46.3599 69.9939C46.9244 69.9939 47.3901 69.9513 47.7571 69.8686C48.1216 69.7858 48.4556 69.67 48.7543 69.5258C48.8978 69.4691 49.0201 69.443 49.1189 69.443C49.2883 69.4478 49.42 69.4974 49.5188 69.5967Z" fill="#F58042"/>
<path d="M54.6416 61.7246C55.3849 61.7246 56.0411 61.883 56.6127 62.2021C57.1843 62.5189 57.6312 62.987 57.9511 63.6063C58.2733 64.2257 58.4332 64.9751 58.4332 65.8545V66.9916C58.4332 67.871 58.2733 68.6204 57.9511 69.2397C57.6288 69.8591 57.1843 70.3272 56.6127 70.644C56.0411 70.9607 55.3849 71.1215 54.6416 71.1215C53.5103 71.1215 52.6024 70.7622 51.9132 70.0435C51.2264 69.3248 50.8806 68.3083 50.8806 66.9939V65.8569C50.8806 64.5425 51.224 63.526 51.9132 62.8073C52.6024 62.0839 53.5103 61.7246 54.6416 61.7246ZM54.6416 70.0648C55.4625 70.0648 56.1047 69.8024 56.5704 69.2799C57.0361 68.7551 57.2689 68.0199 57.2689 67.0743V65.7694C57.2689 64.812 57.0337 64.0697 56.5633 63.5472C56.0929 63.0224 55.4508 62.7624 54.6416 62.7624C53.8325 62.7624 53.1951 63.0248 52.7294 63.5472C52.2637 64.072 52.0308 64.812 52.0308 65.7694V67.0743C52.0308 68.0223 52.2637 68.7575 52.7294 69.2799C53.1951 69.8024 53.8325 70.0648 54.6416 70.0648Z" fill="#F58042"/>
<path d="M61.3428 61.7411C61.498 61.7411 61.6344 61.8002 61.7497 61.9161C61.8673 62.0343 61.9238 62.169 61.9238 62.325V63.5283C62.2342 62.9822 62.6129 62.5449 63.0622 62.2163C63.5114 61.8877 63.9842 61.7222 64.4852 61.7222C64.6969 61.7222 64.8521 61.7695 64.9509 61.8641C65.0497 61.9586 65.1014 62.0839 65.1014 62.2399C65.1014 62.63 64.9086 62.8238 64.5205 62.8238C64.0665 62.8238 63.6478 62.9491 63.2645 63.1997C62.8811 63.4503 62.5706 63.7907 62.333 64.2186C62.0955 64.6489 61.959 65.124 61.9261 65.6488V70.5139C61.9261 70.6818 61.8673 70.8213 61.752 70.9324C61.6368 71.0435 61.5004 71.1002 61.3451 71.1002C61.1781 71.1002 61.0394 71.0435 60.9288 70.9324C60.8183 70.8213 60.7618 70.6818 60.7618 70.5139V62.3227C60.7618 62.1667 60.8183 62.0295 60.9288 61.9137C61.037 61.8002 61.1758 61.7411 61.3428 61.7411Z" fill="#F58042"/>
<path d="M65.9153 66.9727V65.8687C65.9153 64.5992 66.2446 63.5898 66.9055 62.8428C67.5641 62.0957 68.4555 61.7222 69.5751 61.7222C70.7065 61.7222 71.5932 62.0603 72.2354 62.734C72.8775 63.4078 73.1997 64.3983 73.1997 65.7008V66.4195C73.1997 66.5637 73.155 66.6843 73.0657 66.7788C72.9763 66.8734 72.861 66.9207 72.7175 66.9207H67.0796V67.0554C67.0796 67.9585 67.3242 68.6889 67.8111 69.2445C68.2979 69.8024 69.02 70.0813 69.9726 70.0813C70.8476 70.0813 71.6074 69.9206 72.2518 69.5967C72.3953 69.54 72.4964 69.514 72.5505 69.514C72.7058 69.514 72.8281 69.5565 72.9175 69.6393C73.0068 69.722 73.0515 69.8473 73.0515 70.0151C73.0515 70.2161 72.9575 70.3721 72.7693 70.4832C72.4141 70.696 71.9766 70.8544 71.4545 70.9607C70.9323 71.0671 70.4054 71.1191 69.8738 71.1191C68.6319 71.1191 67.6629 70.7551 66.9643 70.0246C66.2657 69.2941 65.9153 68.2776 65.9153 66.9727ZM72.0354 65.6536C72.0354 63.7245 71.2145 62.7624 69.5751 62.7624C68.8225 62.7624 68.218 63.0106 67.7617 63.507C67.3077 64.0035 67.0796 64.7623 67.0796 65.7883V65.9231H72.0354V65.6536Z" fill="#F58042"/>
<path d="M1.84875 76.5587C1.89344 76.5587 1.93343 76.5729 1.964 76.6036C1.99458 76.632 2.01105 76.6698 2.01105 76.7171C2.01105 76.7596 1.99458 76.7974 1.964 76.8282C1.93343 76.8589 1.89579 76.8754 1.84875 76.8754H0.357519V78.4782C0.357519 78.5279 0.341055 78.5681 0.305773 78.6035C0.270492 78.6366 0.230506 78.6555 0.181112 78.6555C0.131718 78.6555 0.0893797 78.639 0.0540982 78.6035C0.0188167 78.5681 0 78.5279 0 78.4782V75.0906C0 75.041 0.0164645 74.9984 0.0517461 74.963C0.0846755 74.9275 0.129365 74.9086 0.181112 74.9086H1.98517C2.02986 74.9086 2.06985 74.9251 2.10043 74.9559C2.131 74.9866 2.14747 75.0244 2.14747 75.0717C2.14747 75.1143 2.131 75.1521 2.10043 75.1852C2.06985 75.2183 2.03222 75.2348 1.98517 75.2348H0.357519V76.5634H1.84875V76.5587Z" fill="#20225C"/>
<path d="M2.89779 74.8542C2.94248 74.8542 2.98246 74.8708 3.01775 74.9062C3.05067 74.9393 3.06949 74.9795 3.06949 75.0268V75.3648C3.06949 75.4098 3.05303 75.4499 3.01775 75.483C2.98246 75.5161 2.94483 75.5327 2.89779 75.5327C2.84839 75.5327 2.80841 75.5161 2.77548 75.483C2.74255 75.4499 2.72608 75.4121 2.72608 75.3648V75.0268C2.72608 74.9819 2.74255 74.9417 2.77548 74.9062C2.80841 74.8708 2.84839 74.8542 2.89779 74.8542ZM2.89779 75.9275C2.94248 75.9275 2.98246 75.944 3.01775 75.9795C3.05067 76.0149 3.06949 76.0528 3.06949 76.1V78.5019C3.06949 78.5515 3.05303 78.5917 3.01775 78.6248C2.98246 78.6579 2.94483 78.6744 2.89779 78.6744C2.84839 78.6744 2.80841 78.6579 2.77548 78.6248C2.74255 78.5917 2.72608 78.5515 2.72608 78.5019V76.1C2.72608 76.0551 2.74255 76.0149 2.77548 75.9795C2.80841 75.944 2.84839 75.9275 2.89779 75.9275Z" fill="#20225C"/>
<path d="M5.01468 76.2466C4.80299 76.2466 4.62423 76.3152 4.47605 76.4523C4.32786 76.5894 4.24554 76.7762 4.22908 77.0102V78.4995C4.22908 78.5492 4.21261 78.5894 4.17733 78.6225C4.14205 78.6556 4.10441 78.6721 4.05737 78.6721C4.00798 78.6721 3.96799 78.6556 3.93506 78.6225C3.90213 78.5894 3.88567 78.5492 3.88567 78.4995V76.0977C3.88567 76.0528 3.90213 76.0126 3.93506 75.9771C3.96799 75.944 4.00798 75.9251 4.05737 75.9251C4.10206 75.9251 4.14205 75.9417 4.17733 75.9771C4.21026 76.0126 4.22908 76.0504 4.22908 76.0977V76.3908C4.32081 76.2395 4.43841 76.1237 4.58424 76.0433C4.73007 75.9606 4.89942 75.9204 5.0923 75.9204C5.40983 75.9204 5.64269 76.0126 5.79087 76.197C5.93905 76.3814 6.01197 76.6509 6.01197 77.0031V78.4972C6.01197 78.5468 5.9955 78.587 5.96022 78.6201C5.92494 78.6532 5.88731 78.6697 5.84026 78.6697C5.79087 78.6697 5.75089 78.6532 5.71796 78.6201C5.68503 78.587 5.66856 78.5468 5.66856 78.4972V77.0362C5.66856 76.7644 5.60976 76.5658 5.49451 76.4358C5.38396 76.3105 5.22166 76.2466 5.01468 76.2466Z" fill="#20225C"/>
<path d="M7.48674 78.6768C7.21389 78.6768 7.00456 78.6106 6.86108 78.4806C6.7176 78.3506 6.64468 78.1662 6.64468 77.9322C6.64468 77.6556 6.73406 77.4523 6.91282 77.3246C7.09158 77.197 7.36208 77.1331 7.72665 77.1331H8.31703V76.996C8.31703 76.7407 8.26763 76.5492 8.16649 76.4216C8.06535 76.2939 7.87954 76.2301 7.6114 76.2301C7.38089 76.2301 7.17155 76.2963 6.98339 76.431C6.9434 76.457 6.90812 76.4712 6.87519 76.4712C6.83285 76.4712 6.79757 76.457 6.76935 76.4287C6.74112 76.4003 6.72701 76.3648 6.72701 76.3176C6.72701 76.2656 6.74818 76.223 6.79051 76.1899C6.91047 76.0977 7.03513 76.0315 7.16685 75.9866C7.29622 75.9417 7.46557 75.9204 7.66785 75.9204C8.03242 75.9204 8.2888 76.0055 8.43699 76.1734C8.58517 76.3412 8.65808 76.6083 8.65808 76.9748V78.4995C8.65808 78.5492 8.64162 78.5894 8.60634 78.6225C8.57105 78.6556 8.53342 78.6721 8.48638 78.6721C8.44169 78.6721 8.4017 78.6556 8.36642 78.6225C8.33349 78.5894 8.31468 78.5492 8.31468 78.4995V78.275C8.22765 78.4097 8.1124 78.509 7.97127 78.5752C7.83014 78.6437 7.66785 78.6768 7.48674 78.6768ZM7.71019 77.4263C7.43969 77.4263 7.25153 77.4641 7.14568 77.5397C7.03984 77.6154 6.98574 77.7407 6.98574 77.918C6.98574 78.0693 7.03278 78.1828 7.12922 78.2631C7.22565 78.3435 7.35737 78.3837 7.52672 78.3837C7.71489 78.3837 7.88659 78.3364 8.03948 78.2419C8.19237 78.1473 8.2841 77.9984 8.31703 77.7951V77.4286H7.71019V77.4263Z" fill="#20225C"/>
<path d="M10.5821 76.2466C10.3704 76.2466 10.1917 76.3152 10.0435 76.4523C9.89529 76.5894 9.81296 76.7762 9.7965 77.0102V78.4995C9.7965 78.5492 9.78003 78.5894 9.74475 78.6225C9.70947 78.6556 9.67184 78.6721 9.6248 78.6721C9.5754 78.6721 9.53542 78.6556 9.50249 78.6225C9.46956 78.5894 9.45309 78.5492 9.45309 78.4995V76.0977C9.45309 76.0528 9.46956 76.0126 9.50249 75.9771C9.53542 75.944 9.5754 75.9251 9.6248 75.9251C9.66949 75.9251 9.70947 75.9417 9.74475 75.9771C9.77768 76.0126 9.7965 76.0504 9.7965 76.0977V76.3908C9.88823 76.2395 10.0058 76.1237 10.1517 76.0433C10.2975 75.9606 10.4668 75.9204 10.6597 75.9204C10.9796 75.9204 11.2125 76.0126 11.3606 76.197C11.5088 76.3814 11.5817 76.6509 11.5817 77.0031V78.4972C11.5817 78.5468 11.5653 78.587 11.53 78.6201C11.4947 78.6532 11.4571 78.6697 11.41 78.6697C11.3606 78.6697 11.3207 78.6532 11.2877 78.6201C11.2548 78.587 11.2383 78.5468 11.2383 78.4972V77.0362C11.2383 76.7644 11.1795 76.5658 11.0643 76.4358C10.9537 76.3105 10.7914 76.2466 10.5821 76.2466Z" fill="#20225C"/>
<path d="M14.1714 76.197C14.1714 76.2395 14.1549 76.275 14.1244 76.3057C14.0938 76.3341 14.0562 76.3506 14.0138 76.3506C13.9879 76.3506 13.9644 76.3435 13.9409 76.3317C13.8021 76.2632 13.6234 76.2277 13.4093 76.2277C13.1647 76.2277 12.9695 76.2986 12.8237 76.4405C12.6778 76.5823 12.6049 76.8069 12.6049 77.1142V77.4877C12.6049 77.7525 12.6731 77.9652 12.8072 78.1307C12.9413 78.2938 13.1388 78.3766 13.3999 78.3766C13.5975 78.3766 13.781 78.3293 13.9503 78.2347C13.9832 78.2158 14.0115 78.2064 14.0373 78.2064C14.0797 78.2064 14.115 78.2229 14.1479 78.2537C14.1785 78.2844 14.1949 78.3222 14.1949 78.3648C14.1949 78.3931 14.1879 78.4215 14.1738 78.4451C14.1596 78.4688 14.1385 78.4877 14.1126 78.5019C13.8868 78.6224 13.6469 78.6839 13.3858 78.6839C13.1576 78.6839 12.9601 78.6343 12.7907 78.5326C12.6214 78.431 12.492 78.2891 12.4003 78.1071C12.3085 77.9251 12.2639 77.7123 12.2639 77.4688V77.1449C12.2639 76.7785 12.3603 76.4854 12.5532 76.2632C12.746 76.0409 13.0306 75.9298 13.4093 75.9298C13.6822 75.9298 13.9056 75.9748 14.0773 76.0622C14.1032 76.0788 14.1244 76.1 14.1432 76.1237C14.1643 76.1402 14.1714 76.1662 14.1714 76.197Z" fill="#20225C"/>
<path d="M14.957 74.8542C15.0017 74.8542 15.0417 74.8708 15.077 74.9062C15.1099 74.9393 15.1287 74.9795 15.1287 75.0268V75.3648C15.1287 75.4098 15.1122 75.4499 15.077 75.483C15.0417 75.5161 15.004 75.5327 14.957 75.5327C14.9076 75.5327 14.8676 75.5161 14.8347 75.483C14.8018 75.4499 14.7853 75.4121 14.7853 75.3648V75.0268C14.7853 74.9819 14.8018 74.9417 14.8347 74.9062C14.8676 74.8708 14.91 74.8542 14.957 74.8542ZM14.957 75.9275C15.0017 75.9275 15.0417 75.944 15.077 75.9795C15.1099 76.0149 15.1287 76.0528 15.1287 76.1V78.5019C15.1287 78.5515 15.1122 78.5917 15.077 78.6248C15.0417 78.6579 15.004 78.6744 14.957 78.6744C14.9076 78.6744 14.8676 78.6579 14.8347 78.6248C14.8018 78.5917 14.7853 78.5515 14.7853 78.5019V76.1C14.7853 76.0551 14.8018 76.0149 14.8347 75.9795C14.8676 75.944 14.91 75.9275 14.957 75.9275Z" fill="#20225C"/>
<path d="M16.6199 78.6768C16.3471 78.6768 16.1378 78.6106 15.9943 78.4806C15.8508 78.3506 15.7779 78.1662 15.7779 77.9322C15.7779 77.6556 15.8673 77.4523 16.046 77.3246C16.2248 77.197 16.4953 77.1331 16.8599 77.1331H17.4502V76.996C17.4502 76.7407 17.4008 76.5492 17.2997 76.4216C17.1986 76.2939 17.0127 76.2301 16.7446 76.2301C16.5141 76.2301 16.3048 76.2963 16.1166 76.431C16.0766 76.457 16.0413 76.4712 16.0084 76.4712C15.9661 76.4712 15.9308 76.457 15.9026 76.4287C15.8743 76.4003 15.8602 76.3648 15.8602 76.3176C15.8602 76.2656 15.8814 76.223 15.9237 76.1899C16.0437 76.0977 16.1683 76.0315 16.3001 75.9866C16.4294 75.9417 16.5988 75.9204 16.8011 75.9204C17.1656 75.9204 17.422 76.0055 17.5702 76.1734C17.7184 76.3412 17.7913 76.6083 17.7913 76.9748V78.4995C17.7913 78.5492 17.7748 78.5894 17.7395 78.6225C17.7043 78.6556 17.6666 78.6721 17.6196 78.6721C17.5749 78.6721 17.5349 78.6556 17.4996 78.6225C17.4667 78.5894 17.4479 78.5492 17.4479 78.4995V78.275C17.3609 78.4097 17.2456 78.509 17.1045 78.5752C16.9633 78.6437 16.8034 78.6768 16.6199 78.6768ZM16.8457 77.4263C16.5753 77.4263 16.3871 77.4641 16.2812 77.5397C16.1754 77.6154 16.1213 77.7407 16.1213 77.918C16.1213 78.0693 16.1683 78.1828 16.2648 78.2631C16.3612 78.3435 16.4929 78.3837 16.6623 78.3837C16.8504 78.3837 17.0222 78.3364 17.175 78.2419C17.3279 78.1473 17.4197 77.9984 17.4526 77.7951V77.4286H16.8457V77.4263Z" fill="#20225C"/>
<path d="M18.7462 74.8495C18.7956 74.8495 18.8356 74.8661 18.8709 74.9015C18.9038 74.937 18.9227 74.9748 18.9227 75.0221V77.9393C18.9227 78.2229 18.9979 78.3648 19.1508 78.3648C19.1908 78.3648 19.2378 78.3601 19.2966 78.3506C19.3484 78.3411 19.3884 78.3506 19.4189 78.3813C19.4472 78.4121 19.4636 78.4523 19.4636 78.5019C19.4636 78.5728 19.4142 78.6248 19.3178 78.6532C19.2755 78.6674 19.2214 78.6721 19.1579 78.6721C18.9462 78.6721 18.798 78.6154 18.711 78.4995C18.6239 78.3861 18.5816 78.204 18.5816 77.9558V75.0197C18.5816 74.9748 18.5981 74.9346 18.631 74.8992C18.6616 74.8661 18.7016 74.8495 18.7462 74.8495Z" fill="#20225C"/>
<path d="M24.5512 76.8967C24.5512 77.2891 24.4477 77.639 24.2384 77.9511L24.6876 78.3979C24.7041 78.4144 24.7159 78.4286 24.7229 78.4451C24.73 78.4593 24.7347 78.483 24.7347 78.5113C24.7347 78.5563 24.7182 78.5964 24.6829 78.6295C24.65 78.6626 24.61 78.6792 24.563 78.6792C24.5206 78.6792 24.4807 78.6603 24.4407 78.6201L24.0126 78.204C23.8644 78.3553 23.6927 78.4711 23.4998 78.5539C23.3093 78.6366 23.107 78.6792 22.9 78.6792C22.5449 78.6792 22.2697 78.5941 22.0698 78.4262C21.8698 78.2584 21.7687 78.0173 21.7687 77.7028C21.7687 77.5255 21.811 77.3624 21.8981 77.2135C21.9851 77.0646 22.1097 76.9393 22.272 76.84L22.5025 76.6981L22.3943 76.5894C22.2462 76.4263 22.1333 76.2797 22.0627 76.1497C21.9921 76.0197 21.9569 75.8778 21.9569 75.7218C21.9569 75.5516 22.0015 75.4003 22.0886 75.2679C22.1756 75.1355 22.2956 75.0315 22.4461 74.9559C22.5966 74.8802 22.7636 74.8424 22.9447 74.8424C23.2576 74.8424 23.4975 74.9181 23.6692 75.0693C23.8409 75.2206 23.9256 75.4287 23.9256 75.6887C23.9256 76.0126 23.7256 76.2939 23.3258 76.5374L23.0129 76.7289L24.0079 77.7147C24.142 77.4759 24.2078 77.204 24.2078 76.8967C24.2078 76.8518 24.2243 76.8116 24.2572 76.7762C24.2901 76.7407 24.3278 76.7242 24.3748 76.7242C24.4242 76.7242 24.4642 76.7407 24.4995 76.7762C24.5324 76.8116 24.5512 76.8518 24.5512 76.8967ZM22.5308 77.0244C22.4085 77.1071 22.3073 77.204 22.2344 77.3175C22.1591 77.431 22.1215 77.561 22.1215 77.7052C22.1215 77.892 22.1921 78.0456 22.3355 78.1709C22.479 78.2962 22.6672 78.3577 22.9 78.3577C23.0765 78.3577 23.2411 78.3246 23.3916 78.2608C23.5445 78.1946 23.6786 78.1024 23.7962 77.9818L22.7189 76.918L22.5308 77.0244ZM23.0882 76.3435C23.2411 76.2513 23.3587 76.1568 23.441 76.0551C23.5234 75.9535 23.5657 75.8353 23.5657 75.7029C23.5657 75.5209 23.5116 75.3814 23.401 75.2892C23.2905 75.197 23.14 75.1497 22.9471 75.1497C22.7519 75.1497 22.5966 75.2017 22.4814 75.3034C22.3661 75.4074 22.3097 75.5422 22.3097 75.7124C22.3097 75.8069 22.3332 75.9015 22.3826 75.996C22.432 76.0906 22.512 76.2017 22.6272 76.3294L22.813 76.5161L23.0882 76.3435Z" fill="#20225C"/>
<path d="M27.1973 78.5397C27.1832 78.5752 27.1621 78.6035 27.1315 78.6248C27.1009 78.6461 27.068 78.6579 27.0327 78.6579C26.9809 78.6579 26.9363 78.6437 26.901 78.6154C26.8657 78.587 26.8469 78.5492 26.8469 78.4995C26.8469 78.4641 26.8539 78.431 26.8657 78.4026L28.1335 75.0599C28.1829 74.9251 28.2628 74.8589 28.3781 74.8589C28.4463 74.8589 28.498 74.8779 28.5357 74.9133C28.5733 74.9488 28.6039 74.9984 28.6251 75.0599L29.8529 78.3719C29.8646 78.4002 29.8717 78.4333 29.8717 78.4688C29.8717 78.5255 29.8529 78.5704 29.8176 78.6035C29.7823 78.639 29.7329 78.6555 29.6717 78.6555C29.6294 78.6555 29.5918 78.6414 29.5588 78.6154C29.5259 78.5893 29.5024 78.5539 29.4859 78.5066L29.1731 77.6201H27.5243L27.1973 78.5397ZM28.3687 75.3294L27.6466 77.2986H29.0602L28.3687 75.3294Z" fill="#20225C"/>
<path d="M32.2073 76.197C32.2073 76.2395 32.1909 76.275 32.1603 76.3057C32.1297 76.3341 32.0921 76.3506 32.0497 76.3506C32.0239 76.3506 32.0003 76.3435 31.9768 76.3317C31.838 76.2632 31.6593 76.2277 31.4452 76.2277C31.2006 76.2277 31.0054 76.2986 30.8596 76.4405C30.7137 76.5823 30.6408 76.8069 30.6408 77.1142V77.4877C30.6408 77.7525 30.709 77.9652 30.8431 78.1307C30.9772 78.2938 31.1747 78.3766 31.4358 78.3766C31.6334 78.3766 31.8169 78.3293 31.9862 78.2347C32.0191 78.2158 32.0474 78.2064 32.0732 78.2064C32.1156 78.2064 32.1509 78.2229 32.1838 78.2537C32.2144 78.2844 32.2308 78.3222 32.2308 78.3648C32.2308 78.3931 32.2238 78.4215 32.2097 78.4451C32.1956 78.4688 32.1744 78.4877 32.1485 78.5019C31.9227 78.6224 31.6828 78.6839 31.4217 78.6839C31.1936 78.6839 30.996 78.6343 30.8266 78.5326C30.6573 78.431 30.5279 78.2891 30.4362 78.1071C30.3445 77.9251 30.2998 77.7123 30.2998 77.4688V77.1449C30.2998 76.7785 30.3962 76.4854 30.5891 76.2632C30.7819 76.0409 31.0665 75.9298 31.4452 75.9298C31.7181 75.9298 31.9415 75.9748 32.1132 76.0622C32.1391 76.0788 32.1603 76.1 32.1791 76.1237C32.1979 76.1402 32.2073 76.1662 32.2073 76.197Z" fill="#20225C"/>
<path d="M34.5524 76.197C34.5524 76.2395 34.5359 76.275 34.5053 76.3057C34.4747 76.3364 34.4371 76.3506 34.3948 76.3506C34.3689 76.3506 34.3454 76.3435 34.3219 76.3317C34.1831 76.2632 34.0043 76.2277 33.7903 76.2277C33.5457 76.2277 33.3504 76.2986 33.2046 76.4405C33.0588 76.5823 32.9859 76.8069 32.9859 77.1142V77.4877C32.9859 77.7525 33.0541 77.9652 33.1881 78.1307C33.3222 78.2938 33.5198 78.3766 33.7809 78.3766C33.9784 78.3766 34.1619 78.3293 34.3313 78.2347C34.3642 78.2158 34.3924 78.2064 34.4183 78.2064C34.4606 78.2064 34.4959 78.2229 34.5288 78.2537C34.5594 78.2844 34.5759 78.3222 34.5759 78.3648C34.5759 78.3931 34.5688 78.4215 34.5547 78.4451C34.5406 78.4688 34.5194 78.4877 34.4936 78.5019C34.2678 78.6224 34.0278 78.6839 33.7668 78.6839C33.5386 78.6839 33.341 78.6343 33.1717 78.5326C33.0023 78.431 32.873 78.2891 32.7812 78.1071C32.6895 77.9251 32.6448 77.7123 32.6448 77.4688V77.1449C32.6448 76.7785 32.7412 76.4854 32.9341 76.2632C33.127 76.0409 33.4116 75.9298 33.7903 75.9298C34.0631 75.9298 34.2866 75.9748 34.4583 76.0622C34.4841 76.0788 34.5053 76.1 34.5241 76.1237C34.5429 76.1402 34.5524 76.1662 34.5524 76.197Z" fill="#20225C"/>
<path d="M36.0977 75.9228C36.3164 75.9228 36.5093 75.97 36.6763 76.0622C36.8433 76.1544 36.975 76.2915 37.0691 76.4736C37.1632 76.6556 37.2102 76.8755 37.2102 77.1331V77.4665C37.2102 77.7241 37.1632 77.944 37.0691 78.126C36.975 78.308 36.8433 78.4451 36.6763 78.5373C36.5093 78.6295 36.3164 78.6768 36.0977 78.6768C35.766 78.6768 35.5003 78.5704 35.298 78.36C35.0957 78.1496 34.9969 77.8518 34.9969 77.4665V77.1331C34.9969 76.7478 35.098 76.4499 35.298 76.2395C35.5003 76.0268 35.766 75.9228 36.0977 75.9228ZM36.0977 78.3671C36.3376 78.3671 36.5258 78.2915 36.6622 78.1378C36.7986 77.9842 36.8668 77.769 36.8668 77.4901V77.1071C36.8668 76.8258 36.7986 76.6083 36.6598 76.4547C36.5211 76.301 36.3329 76.2254 36.0977 76.2254C35.8601 76.2254 35.6743 76.301 35.5379 76.4547C35.4015 76.6083 35.3333 76.8258 35.3333 77.1071V77.4901C35.3333 77.7667 35.4015 77.9842 35.5379 78.1378C35.6743 78.2915 35.8601 78.3671 36.0977 78.3671Z" fill="#20225C"/>
<path d="M38.8873 78.353C39.099 78.353 39.2754 78.2844 39.4189 78.1473C39.5623 78.0102 39.6423 77.8234 39.6588 77.5894V76.0953C39.6588 76.0504 39.6752 76.0102 39.7105 75.9771C39.7458 75.944 39.7834 75.9275 39.8305 75.9275C39.8799 75.9275 39.9199 75.944 39.9528 75.9771C39.9857 76.0102 40.0022 76.0481 40.0022 76.0953V78.5019C40.0022 78.5468 39.9857 78.587 39.9528 78.6225C39.9199 78.6555 39.8799 78.6745 39.8305 78.6745C39.7858 78.6745 39.7458 78.6579 39.7105 78.6225C39.6776 78.587 39.6588 78.5492 39.6588 78.5019V78.2182C39.567 78.3648 39.4494 78.4782 39.3083 78.5586C39.1648 78.639 39.0002 78.6792 38.812 78.6792C38.4945 78.6792 38.2616 78.587 38.1134 78.4026C37.9676 78.2182 37.8947 77.9487 37.8947 77.5965V76.0977C37.8947 76.0528 37.9112 76.0126 37.9441 75.9795C37.977 75.9464 38.017 75.9298 38.0664 75.9298C38.1111 75.9298 38.1511 75.9464 38.184 75.9795C38.2169 76.0126 38.2334 76.0504 38.2334 76.0977V77.5634C38.2334 77.8305 38.2922 78.0314 38.4098 78.1615C38.5227 78.2868 38.6826 78.353 38.8873 78.353Z" fill="#20225C"/>
<path d="M41.945 76.2466C41.7333 76.2466 41.5546 76.3152 41.4064 76.4523C41.2582 76.5894 41.1759 76.7762 41.1594 77.0102V78.4995C41.1594 78.5492 41.1429 78.5894 41.1077 78.6225C41.0724 78.6556 41.0347 78.6721 40.9877 78.6721C40.9383 78.6721 40.8983 78.6556 40.8654 78.6225C40.8325 78.5894 40.816 78.5492 40.816 78.4995V76.0977C40.816 76.0528 40.8325 76.0126 40.8654 75.9771C40.8983 75.944 40.9383 75.9251 40.9877 75.9251C41.0324 75.9251 41.0724 75.9417 41.1077 75.9771C41.1406 76.0126 41.1594 76.0504 41.1594 76.0977V76.3908C41.2511 76.2395 41.3687 76.1237 41.5146 76.0433C41.6604 75.9606 41.8298 75.9204 42.0226 75.9204C42.3425 75.9204 42.5754 76.0126 42.7236 76.197C42.8717 76.3814 42.9447 76.6509 42.9447 77.0031V78.4972C42.9447 78.5468 42.9282 78.587 42.8929 78.6201C42.8576 78.6532 42.82 78.6697 42.773 78.6697C42.7236 78.6697 42.6836 78.6532 42.6506 78.6201C42.6177 78.587 42.6012 78.5468 42.6012 78.4972V77.0362C42.6012 76.7644 42.5424 76.5658 42.4272 76.4358C42.3166 76.3105 42.1543 76.2466 41.945 76.2466Z" fill="#20225C"/>
<path d="M43.9325 75.2277C43.9655 75.1923 44.0055 75.1757 44.0525 75.1757C44.1019 75.1757 44.1419 75.1923 44.1772 75.2277C44.2101 75.2608 44.2289 75.301 44.2289 75.3483V75.9866H44.8099C44.8522 75.9866 44.8875 76.0008 44.9134 76.0315C44.9416 76.0599 44.9557 76.0977 44.9557 76.145C44.9557 76.1875 44.9416 76.223 44.9134 76.2537C44.8851 76.2821 44.8499 76.2986 44.8099 76.2986H44.2289V77.7974C44.2289 78.0007 44.2642 78.1473 44.3347 78.2418C44.4053 78.334 44.5229 78.3813 44.6923 78.3813C44.7181 78.3813 44.7652 78.3766 44.8334 78.3671C44.8828 78.36 44.9228 78.3719 44.9557 78.4002C44.9886 78.4286 45.0051 78.4641 45.0051 78.5066C45.0051 78.5988 44.9557 78.6508 44.8593 78.6674C44.831 78.6744 44.7816 78.6768 44.7134 78.6768C44.4335 78.6768 44.2266 78.6083 44.0901 78.4711C43.9537 78.334 43.8855 78.1165 43.8855 77.8187V76.2986H43.5538C43.5115 76.2986 43.4762 76.2844 43.448 76.2537C43.4174 76.2253 43.4033 76.1875 43.4033 76.145C43.4033 76.1024 43.4174 76.0646 43.448 76.0339C43.4762 76.0031 43.5139 75.9866 43.5538 75.9866H43.8855V75.3483C43.8831 75.3034 43.8996 75.2632 43.9325 75.2277Z" fill="#20225C"/>
<path d="M45.6919 74.8542C45.7366 74.8542 45.7766 74.8708 45.8119 74.9062C45.8448 74.9393 45.8636 74.9795 45.8636 75.0268V75.3648C45.8636 75.4098 45.8471 75.4499 45.8119 75.483C45.7766 75.5161 45.7389 75.5327 45.6919 75.5327C45.6425 75.5327 45.6025 75.5161 45.5696 75.483C45.5367 75.4499 45.5202 75.4121 45.5202 75.3648V75.0268C45.5202 74.9819 45.5367 74.9417 45.5696 74.9062C45.6025 74.8708 45.6425 74.8542 45.6919 74.8542ZM45.6919 75.9275C45.7366 75.9275 45.7766 75.944 45.8119 75.9795C45.8448 76.0149 45.8636 76.0528 45.8636 76.1V78.5019C45.8636 78.5515 45.8471 78.5917 45.8119 78.6248C45.7766 78.6579 45.7389 78.6744 45.6919 78.6744C45.6425 78.6744 45.6025 78.6579 45.5696 78.6248C45.5367 78.5917 45.5202 78.5515 45.5202 78.5019V76.1C45.5202 76.0551 45.5367 76.0149 45.5696 75.9795C45.6025 75.944 45.6425 75.9275 45.6919 75.9275Z" fill="#20225C"/>
<path d="M47.8088 76.2466C47.5971 76.2466 47.4183 76.3152 47.2702 76.4523C47.122 76.5894 47.0397 76.7762 47.0232 77.0102V78.4995C47.0232 78.5492 47.0067 78.5894 46.9714 78.6225C46.9362 78.6556 46.8985 78.6721 46.8515 78.6721C46.8021 78.6721 46.7621 78.6556 46.7292 78.6225C46.6962 78.5894 46.6798 78.5492 46.6798 78.4995V76.0977C46.6798 76.0528 46.6962 76.0126 46.7292 75.9771C46.7621 75.944 46.8021 75.9251 46.8515 75.9251C46.8962 75.9251 46.9362 75.9417 46.9714 75.9771C47.0044 76.0126 47.0232 76.0504 47.0232 76.0977V76.3908C47.1149 76.2395 47.2325 76.1237 47.3784 76.0433C47.5242 75.9606 47.6935 75.9204 47.8864 75.9204C48.2039 75.9204 48.4368 76.0126 48.585 76.197C48.7332 76.3814 48.8061 76.6509 48.8061 77.0031V78.4972C48.8061 78.5468 48.7896 78.587 48.7543 78.6201C48.7191 78.6532 48.6814 78.6697 48.6344 78.6697C48.585 78.6697 48.545 78.6532 48.5121 78.6201C48.4791 78.587 48.4627 78.5468 48.4627 78.4972V77.0362C48.4627 76.7644 48.4039 76.5658 48.2886 76.4358C48.1781 76.3105 48.0158 76.2466 47.8088 76.2466Z" fill="#20225C"/>
<path d="M49.6646 79.3482C49.6952 79.3151 49.7328 79.2986 49.7752 79.2986C49.801 79.2986 49.8246 79.3057 49.8481 79.3175C50.0433 79.4026 50.2691 79.4451 50.5255 79.4451C50.8289 79.4451 51.0429 79.3718 51.1723 79.2253C51.3017 79.0787 51.3652 78.8636 51.3652 78.5823V78.1615C51.2734 78.3175 51.1582 78.4428 51.0171 78.5373C50.8759 78.6295 50.7113 78.6768 50.5278 78.6768C50.1938 78.6768 49.9375 78.5657 49.7587 78.3459C49.5823 78.126 49.4929 77.8281 49.4929 77.4523V77.1426C49.4929 76.7762 49.5823 76.4807 49.7587 76.2585C49.9351 76.0339 50.1891 75.9228 50.5161 75.9228C50.7042 75.9228 50.8712 75.9653 51.0124 76.0504C51.1558 76.1355 51.2734 76.2514 51.3628 76.3979V76.1001C51.3628 76.0551 51.3793 76.015 51.4122 75.9795C51.4451 75.9464 51.4828 75.9275 51.5298 75.9275C51.5792 75.9275 51.6192 75.944 51.6521 75.9795C51.6851 76.015 51.7015 76.0528 51.7015 76.1001V78.6035C51.7015 78.9605 51.6027 79.2418 51.4028 79.4475C51.2029 79.6532 50.9089 79.7572 50.5231 79.7572C50.1844 79.7572 49.9139 79.7028 49.7093 79.5964C49.6505 79.5681 49.6223 79.5231 49.6223 79.464C49.6176 79.4191 49.634 79.3813 49.6646 79.3482ZM50.9559 76.3388C50.8383 76.2632 50.7089 76.2254 50.5678 76.2254C50.3491 76.2254 50.1727 76.2986 50.0362 76.4476C49.8998 76.5965 49.8316 76.8187 49.8316 77.1166V77.4735C49.8316 77.7359 49.8951 77.9487 50.0198 78.1189C50.1444 78.2868 50.3255 78.3719 50.5631 78.3719C50.7136 78.3719 50.8477 78.3317 50.97 78.2489C51.0923 78.1662 51.1888 78.0622 51.257 77.9322C51.3275 77.8021 51.3628 77.6721 51.3628 77.5374V77.022C51.3558 76.8849 51.3158 76.7549 51.2429 76.632C51.17 76.5138 51.0735 76.4145 50.9559 76.3388Z" fill="#20225C"/>
<path d="M55.0533 78.3057C55.1662 78.334 55.3214 78.3482 55.519 78.3482C55.8083 78.3482 56.0341 78.2773 56.194 78.1378C56.354 77.9984 56.4363 77.8045 56.4363 77.5587C56.4363 77.3553 56.3728 77.2041 56.2434 77.1C56.1141 76.996 55.9024 76.9298 55.606 76.8967L55.3614 76.8684C55.0556 76.8282 54.8181 76.7289 54.6464 76.5658C54.4747 76.405 54.39 76.1852 54.39 75.9062C54.39 75.58 54.5029 75.3223 54.731 75.1332C54.9592 74.9464 55.2603 74.8519 55.6389 74.8519C55.8248 74.8519 56.0012 74.8731 56.1705 74.9157C56.3399 74.9583 56.4739 75.0174 56.5704 75.093C56.6221 75.1356 56.648 75.1781 56.648 75.2207C56.648 75.2656 56.6315 75.3058 56.6009 75.3389C56.5704 75.3719 56.5327 75.3885 56.4857 75.3885C56.4669 75.3885 56.4245 75.3743 56.3587 75.3436C56.1399 75.2254 55.8953 75.1663 55.6225 75.1663C55.3261 75.1663 55.105 75.2325 54.9592 75.3649C54.8134 75.4972 54.7404 75.6816 54.7404 75.9157C54.7404 76.1142 54.8016 76.2608 54.9239 76.3577C55.0462 76.4523 55.2438 76.5185 55.5166 76.554L55.7613 76.5823C56.0905 76.6225 56.3446 76.7171 56.5233 76.8684C56.7044 77.0197 56.7938 77.249 56.7938 77.5563C56.7938 77.9133 56.6739 78.1851 56.4316 78.3742C56.1893 78.5633 55.8577 78.6579 55.4343 78.6579C55.2626 78.6579 55.098 78.6414 54.9404 78.6059C54.7828 78.5704 54.644 78.5208 54.524 78.4522C54.4417 78.4073 54.4017 78.3506 54.4017 78.2868C54.4017 78.2466 54.4159 78.2135 54.4464 78.1804C54.4747 78.1497 54.5099 78.1331 54.5499 78.1331C54.5993 78.1331 54.6628 78.152 54.7404 78.1922C54.8345 78.2418 54.9404 78.2797 55.0533 78.3057Z" fill="#20225C"/>
<path d="M58.1181 78.6815L57.1419 76.1781C57.1278 76.145 57.1231 76.1166 57.1231 76.0953C57.1255 76.0504 57.1443 76.0102 57.1772 75.9771C57.2101 75.944 57.2478 75.9275 57.2948 75.9275C57.3301 75.9275 57.363 75.9393 57.3913 75.9582C57.4218 75.9795 57.4406 76.0055 57.4548 76.0386L58.2874 78.2678L59.1177 76.0528C59.153 75.9677 59.2071 75.9251 59.2776 75.9251C59.327 75.9251 59.367 75.9393 59.3999 75.9653C59.4329 75.9913 59.4493 76.0291 59.4493 76.0788C59.4493 76.1119 59.4423 76.1426 59.4305 76.171L58.5179 78.5137L58.1228 79.6224C58.1086 79.6579 58.0898 79.6886 58.0616 79.7122C58.0334 79.7359 58.0004 79.7501 57.9628 79.7501C57.9181 79.7501 57.8781 79.7359 57.8452 79.7051C57.8123 79.6768 57.7958 79.639 57.7958 79.5917C57.7958 79.5633 57.8005 79.5326 57.8099 79.5042L58.1181 78.6815Z" fill="#20225C"/>
<path d="M60.8536 77.4215L60.5948 77.4026C60.3573 77.3861 60.1667 77.3246 60.0256 77.2159C59.8821 77.1071 59.8116 76.9393 59.8116 76.7053C59.8116 76.4499 59.9057 76.2561 60.0938 76.119C60.282 75.9842 60.5148 75.9157 60.7924 75.9157C60.957 75.9157 61.1146 75.9322 61.2605 75.963C61.4063 75.9937 61.5215 76.0315 61.6015 76.0741C61.6603 76.1024 61.6885 76.1497 61.6885 76.2112C61.6885 76.2561 61.6744 76.2939 61.6486 76.3247C61.6227 76.353 61.5874 76.3696 61.5404 76.3696C61.5145 76.3696 61.4769 76.3625 61.4275 76.3459C61.2252 76.2632 61.0253 76.223 60.823 76.223C60.6089 76.223 60.4419 76.2632 60.3196 76.3459C60.1973 76.4287 60.1385 76.5421 60.1385 76.6887C60.1385 76.8424 60.1903 76.9488 60.2914 77.0055C60.3949 77.0622 60.5337 77.1 60.7124 77.1166L61.0041 77.1402C61.2487 77.1592 61.4392 77.2253 61.5803 77.3388C61.7191 77.4523 61.7897 77.6201 61.7897 77.8471C61.7897 78.0362 61.7379 78.1922 61.6344 78.3175C61.531 78.4428 61.3969 78.5326 61.2346 78.5894C61.0723 78.6461 60.9006 78.6745 60.7218 78.6745C60.5595 78.6745 60.4019 78.6579 60.2514 78.6225C60.1009 78.587 59.9833 78.5492 59.9033 78.5066C59.8445 78.4712 59.8163 78.4239 59.8163 78.3648C59.8163 78.3199 59.8327 78.282 59.8633 78.256C59.8939 78.23 59.9315 78.2159 59.9786 78.2159C60.0068 78.2159 60.0632 78.23 60.1432 78.2608C60.2444 78.2962 60.3408 78.3246 60.4302 78.3435C60.5219 78.3624 60.6348 78.3719 60.7712 78.3719C60.9735 78.3719 61.1382 78.3293 61.2628 78.2442C61.3898 78.1591 61.4533 78.0386 61.4533 77.8825C61.4533 77.7312 61.4039 77.6225 61.3052 77.5516C61.2111 77.4807 61.0582 77.4381 60.8536 77.4215Z" fill="#20225C"/>
<path d="M62.6458 75.2277C62.6788 75.1923 62.7188 75.1757 62.7658 75.1757C62.8152 75.1757 62.8552 75.1923 62.8905 75.2277C62.9234 75.2608 62.9422 75.301 62.9422 75.3483V75.9866H63.5232C63.5655 75.9866 63.6008 76.0008 63.6267 76.0315C63.6549 76.0599 63.669 76.0977 63.669 76.145C63.669 76.1875 63.6549 76.223 63.6267 76.2537C63.5984 76.2844 63.5632 76.2986 63.5232 76.2986H62.9422V77.7974C62.9422 78.0007 62.9775 78.1473 63.0481 78.2418C63.1186 78.334 63.2362 78.3813 63.4056 78.3813C63.4314 78.3813 63.4785 78.3766 63.5467 78.3671C63.5961 78.36 63.6361 78.3719 63.669 78.4002C63.7019 78.4286 63.7184 78.4641 63.7184 78.5066C63.7184 78.5988 63.669 78.6508 63.5726 78.6674C63.5444 78.6744 63.495 78.6768 63.4267 78.6768C63.1468 78.6768 62.9399 78.6083 62.8034 78.4711C62.667 78.334 62.5988 78.1165 62.5988 77.8187V76.2986H62.2672C62.2248 76.2986 62.1895 76.2844 62.1613 76.2537C62.1307 76.2253 62.1166 76.1875 62.1166 76.145C62.1166 76.1024 62.1307 76.0646 62.1613 76.0339C62.1895 76.0031 62.2272 75.9866 62.2672 75.9866H62.5988V75.3483C62.5941 75.3034 62.6106 75.2632 62.6458 75.2277Z" fill="#20225C"/>
<path d="M64.0736 77.4617V77.1379C64.0736 76.7643 64.17 76.4688 64.3629 76.2514C64.5558 76.0315 64.8168 75.9228 65.1461 75.9228C65.4778 75.9228 65.7365 76.022 65.927 76.2183C66.1152 76.4168 66.2093 76.7053 66.2093 77.0882V77.2986C66.2093 77.3412 66.1952 77.3766 66.1693 77.405C66.1434 77.4334 66.1081 77.4475 66.0682 77.4475H64.4146V77.4877C64.4146 77.7525 64.4852 77.9653 64.6287 78.1307C64.7721 78.2939 64.9838 78.3766 65.2637 78.3766C65.5201 78.3766 65.7436 78.3293 65.9317 78.2348C65.9741 78.2182 66.0023 78.2111 66.0188 78.2111C66.0635 78.2111 66.1011 78.2229 66.127 78.2489C66.1528 78.2726 66.1669 78.3104 66.1669 78.36C66.1669 78.4191 66.1387 78.4641 66.0846 78.4972C65.9811 78.5586 65.8518 78.6059 65.6989 78.6366C65.546 78.6674 65.3907 78.6839 65.2355 78.6839C64.8709 78.6839 64.5863 78.5775 64.3817 78.3624C64.1747 78.1426 64.0736 77.8423 64.0736 77.4617ZM65.8659 77.074C65.8659 76.509 65.626 76.2254 65.1438 76.2254C64.9227 76.2254 64.7463 76.2986 64.6122 76.4428C64.4781 76.587 64.4123 76.8116 64.4123 77.1119V77.152H65.8659V77.074Z" fill="#20225C"/>
<path d="M67.9687 76.2466C67.7617 76.2466 67.59 76.3152 67.4559 76.4499C67.3218 76.5847 67.2466 76.7738 67.2324 77.0102V78.4995C67.2324 78.5492 67.216 78.5894 67.1807 78.6225C67.1454 78.6556 67.1078 78.6721 67.0607 78.6721C67.0113 78.6721 66.9714 78.6556 66.9384 78.6225C66.9055 78.5894 66.889 78.5492 66.889 78.4995V76.0977C66.889 76.0528 66.9055 76.0126 66.9384 75.9771C66.9714 75.944 67.0113 75.9251 67.0607 75.9251C67.1054 75.9251 67.1454 75.9417 67.1807 75.9771C67.2136 76.0126 67.2324 76.0504 67.2324 76.0977V76.3672C67.4112 76.0693 67.6817 75.9204 68.0463 75.9204C68.4908 75.9204 68.7754 76.1095 68.9001 76.4878C69.0718 76.1095 69.3634 75.9204 69.7727 75.9204C70.3937 75.9204 70.7041 76.2821 70.7041 77.0031V78.4972C70.7041 78.5468 70.6877 78.587 70.6524 78.6201C70.6171 78.6532 70.5795 78.6697 70.5324 78.6697C70.483 78.6697 70.4431 78.6532 70.4101 78.6201C70.3772 78.587 70.3607 78.5468 70.3607 78.4972V77.0362C70.3607 76.7644 70.3019 76.5658 70.182 76.4358C70.0644 76.3057 69.8997 76.2419 69.6927 76.2419C69.4905 76.2419 69.3258 76.3057 69.1964 76.431C69.0671 76.5563 68.9895 76.7313 68.9659 76.9535V78.4972C68.9659 78.5468 68.9495 78.587 68.9142 78.6201C68.8789 78.6532 68.8413 78.6697 68.7942 78.6697C68.7448 78.6697 68.7049 78.6532 68.6719 78.6201C68.639 78.587 68.6225 78.5468 68.6225 78.4972V77.0362C68.6225 76.7644 68.5637 76.5658 68.4485 76.4358C68.3379 76.3105 68.178 76.2466 67.9687 76.2466Z" fill="#20225C"/>
<path d="M72.4071 77.4215L72.1483 77.4026C71.9108 77.3861 71.7203 77.3246 71.5768 77.2159C71.4333 77.1071 71.3627 76.9393 71.3627 76.7053C71.3627 76.4499 71.4568 76.2561 71.645 76.119C71.8331 75.9842 72.066 75.9157 72.3412 75.9157C72.5059 75.9157 72.6634 75.9322 72.8093 75.963C72.9551 75.9937 73.0704 76.0315 73.1503 76.0741C73.2091 76.1024 73.2374 76.1497 73.2374 76.2112C73.2374 76.2561 73.2232 76.2939 73.1974 76.3247C73.1715 76.353 73.1362 76.3696 73.0892 76.3696C73.0633 76.3696 73.0257 76.3625 72.9763 76.3459C72.774 76.2632 72.5741 76.223 72.3718 76.223C72.1577 76.223 71.9907 76.2632 71.8708 76.3459C71.7508 76.4287 71.6897 76.5421 71.6897 76.6887C71.6897 76.8424 71.7414 76.9488 71.8426 77.0055C71.9461 77.0622 72.0848 77.1 72.2636 77.1166L72.5552 77.1402C72.7999 77.1592 72.9904 77.2253 73.1292 77.3388C73.2679 77.4523 73.3385 77.6201 73.3385 77.8471C73.3385 78.0362 73.2867 78.1922 73.1833 78.3175C73.0798 78.4428 72.9457 78.5326 72.7834 78.5894C72.6211 78.6461 72.4494 78.6745 72.2706 78.6745C72.1083 78.6745 71.9508 78.6579 71.8002 78.6225C71.6497 78.587 71.5321 78.5492 71.4521 78.5066C71.3933 78.4712 71.3651 78.4239 71.3651 78.3648C71.3651 78.3199 71.3792 78.282 71.4121 78.256C71.4427 78.23 71.4803 78.2159 71.5274 78.2159C71.5556 78.2159 71.6121 78.23 71.692 78.2608C71.7932 78.2962 71.8896 78.3246 71.979 78.3435C72.0707 78.3624 72.1836 78.3719 72.32 78.3719C72.5223 78.3719 72.6846 78.3293 72.8116 78.2442C72.9386 78.1591 73.0021 78.0386 73.0021 77.8825C73.0021 77.7312 72.9528 77.6225 72.854 77.5516C72.7622 77.4807 72.6117 77.4381 72.4071 77.4215Z" fill="#20225C"/>
<path d="M47.0255 10.3501L46.8045 10.2271C44.831 9.15389 42.7071 8.39268 40.4914 7.96952L40.3268 7.93879L40.3503 7.77095C40.689 5.41404 40.9383 3.75451 41.0936 2.83964C41.2605 1.85858 41.7827 1.03354 42.5707 0.51819C43.321 0.0264772 44.2242 -0.122455 45.1156 0.102125C46.9832 0.572562 48.2298 2.55832 47.8982 4.52754C47.7335 5.49678 47.4536 7.37143 47.0679 10.0971L47.0255 10.3501Z" fill="#20225C"/>
<path d="M56.3375 32.4015C54.9074 31.9641 53.3974 32.7726 52.9599 34.2076C51.1135 40.2878 46.1365 44.9142 39.9692 46.2853C35.3968 47.3018 30.7067 46.4673 26.7598 43.9355C22.813 41.4036 20.0822 37.4794 19.0708 32.8861C18.2993 29.3779 18.6333 25.8792 19.8353 22.7564L15.5145 19.1134C13.3623 23.605 12.6355 28.8271 13.788 34.061C15.1099 40.075 18.6827 45.2097 23.8479 48.5216C27.5784 50.914 31.8192 52.148 36.14 52.148C37.8006 52.148 39.4753 51.966 41.1359 51.5972C49.2059 49.8053 55.7189 43.7511 58.1345 35.7986C58.5697 34.3589 57.7652 32.8412 56.3375 32.4015Z" fill="#F58042"/>
<path d="M23.4669 16.9716C25.7931 14.4965 28.8532 12.6715 32.4049 11.882C38.5721 10.5108 45.0286 12.6006 49.2506 17.331C50.2479 18.4491 51.9579 18.5413 53.0704 17.539C54.183 16.5367 54.2747 14.818 53.2774 13.6999C47.7523 7.51091 39.3083 4.78049 31.2382 6.5724C26.4799 7.62911 22.392 10.1113 19.3225 13.4729L23.4669 16.9716Z" fill="#F58042"/>
<path d="M58.4215 26.9761L51.9955 28.4252C50.4808 28.768 48.9637 27.8011 48.6226 26.2787C48.2816 24.7563 49.2436 23.2315 50.7583 22.8887L57.1843 21.4396C58.699 21.0968 60.2161 22.0637 60.5572 23.5861C60.8959 25.1109 59.9362 26.6357 58.4215 26.9761Z" fill="#20225C"/>
<path d="M39.7599 13.3122L39.6494 13.2885C39.0308 17.8747 38.4357 24.6168 38.0923 24.8816C37.8665 26.0423 37.1044 26.9998 36.0601 27.4111C35.0792 27.7941 33.9714 27.6617 33.0588 27.0825C32.9788 27.0329 31.8569 26.1133 31.8569 26.1133L15.2675 12.1184C14.7759 11.9387 14.2537 11.8725 13.7316 11.9387C12.8448 12.0498 12.0639 12.5202 11.5324 13.2625C10.4128 14.8275 10.742 17.149 12.2686 18.4373L37.8171 39.9923C38.7908 40.815 40.0892 41.0561 41.2206 40.614C42.3284 40.1767 43.1211 39.1224 43.2881 37.8623L43.2928 37.8198C43.5609 35.7962 44.9628 25.2551 46.1929 16.3263L46.207 16.2223L46.1223 16.1608C44.2171 14.7566 42.0767 13.7992 39.7599 13.3122Z" fill="#20225C"/>
<path d="M37.7512 33.4558C35.3544 34.4014 32.6377 33.2123 31.6946 30.8034C30.7537 28.3945 31.9368 25.6641 34.3336 24.7161C36.7304 23.7681 39.4471 24.9596 40.3903 27.3685C41.3335 29.7774 40.148 32.5079 37.7512 33.4558Z" fill="#F58042"/>
</svg>
