<svg width="23" height="23" viewBox="0 0 23 23" fill="none" xmlns="http://www.w3.org/2000/svg">
<path d="M11.5 0C9.22552 0 7.00211 0.674463 5.11095 1.9381C3.21978 3.20174 1.7458 4.99779 0.87539 7.09914C0.00498288 9.20049 -0.222756 11.5128 0.220974 13.7435C0.664704 15.9743 1.75997 18.0234 3.36828 19.6317C4.97658 21.24 7.02568 22.3353 9.25646 22.779C11.4872 23.2228 13.7995 22.995 15.9009 22.1246C18.0022 21.2542 19.7983 19.7802 21.0619 17.8891C22.3255 15.9979 23 13.7745 23 11.5C22.9963 8.45113 21.7836 5.52818 19.6277 3.37231C17.4718 1.21643 14.5489 0.00365207 11.5 0ZM10.7333 5.36667C10.7333 5.16333 10.8141 4.96833 10.9579 4.82455C11.1017 4.68077 11.2967 4.6 11.5 4.6C11.7033 4.6 11.8983 4.68077 12.0421 4.82455C12.1859 4.96833 12.2667 5.16333 12.2667 5.36667V10.7333C12.2667 10.9367 12.1859 11.1317 12.0421 11.2754C11.8983 11.4192 11.7033 11.5 11.5 11.5C11.2967 11.5 11.1017 11.4192 10.9579 11.2754C10.8141 11.1317 10.7333 10.9367 10.7333 10.7333V5.36667ZM11.5 18.4C9.67088 18.3972 7.91749 17.6693 6.6241 16.3759C5.33072 15.0825 4.60284 13.3291 4.6 11.5C4.59665 10.4653 4.82812 9.44337 5.27698 8.51111C5.72585 7.57886 6.3804 6.76061 7.19134 6.118C7.26854 6.04513 7.36003 5.98908 7.46003 5.95341C7.56002 5.91775 7.66633 5.90324 7.77222 5.9108C7.87812 5.91837 7.98129 5.94784 8.07519 5.99736C8.1691 6.04688 8.2517 6.11536 8.31776 6.19847C8.38382 6.28157 8.4319 6.37749 8.45895 6.48015C8.48601 6.58281 8.49144 6.68997 8.47492 6.79484C8.4584 6.89971 8.42027 7 8.36297 7.08937C8.30566 7.17874 8.23042 7.25523 8.142 7.314C7.27501 8.00945 6.64533 8.95694 6.33992 10.0256C6.03451 11.0943 6.06844 12.2314 6.43703 13.28C6.80561 14.3286 7.49066 15.2368 8.39758 15.8793C9.3045 16.5219 10.3885 16.8669 11.5 16.8669C12.6115 16.8669 13.6955 16.5219 14.6024 15.8793C15.5093 15.2368 16.1944 14.3286 16.563 13.28C16.9316 12.2314 16.9655 11.0943 16.6601 10.0256C16.3547 8.95694 15.725 8.00945 14.858 7.314C14.7183 7.18216 14.6332 7.00269 14.6195 6.81111C14.6059 6.61952 14.6646 6.42978 14.7841 6.27942C14.9036 6.12907 15.0752 6.02905 15.2649 5.99915C15.4547 5.96926 15.6487 6.01167 15.8087 6.118C16.6196 6.76061 17.2742 7.57886 17.723 8.51111C18.1719 9.44337 18.4034 10.4653 18.4 11.5C18.3972 13.3291 17.6693 15.0825 16.3759 16.3759C15.0825 17.6693 13.3291 18.3972 11.5 18.4Z" fill="#D80027"/>
</svg>
