<svg width="25" height="26" viewBox="0 0 25 26" fill="none" xmlns="http://www.w3.org/2000/svg">
<path d="M9.27998 2.25333C9.40042 1.53067 10.0294 1 10.7654 1H14.2353C14.9713 1 15.6002 1.53067 15.7207 2.25333L16.0057 3.96133C16.09 4.46 16.4246 4.876 16.8688 5.12133C16.9679 5.17467 17.0656 5.232 17.1632 5.29067C17.5968 5.552 18.1267 5.63333 18.6018 5.456L20.2304 4.848C20.5641 4.72294 20.9316 4.71997 21.2673 4.83962C21.603 4.95926 21.8852 5.19375 22.0637 5.50133L23.798 8.49733C23.976 8.80494 24.0388 9.16551 23.9751 9.51489C23.9114 9.86427 23.7253 10.1798 23.45 10.4053L22.1078 11.508C21.7157 11.828 21.5217 12.3253 21.5311 12.8307C21.5332 12.944 21.5332 13.0573 21.5311 13.1707C21.5217 13.6747 21.7157 14.1707 22.1065 14.4907L23.4514 15.5947C24.0188 16.0613 24.166 16.8667 23.7993 17.5013L22.0623 20.4973C21.8842 20.8048 21.6023 21.0394 21.2668 21.1593C20.9313 21.2792 20.5641 21.2766 20.2304 21.152L18.6018 20.544C18.1267 20.3667 17.5981 20.448 17.1619 20.7093C17.0649 20.7681 16.9667 20.825 16.8675 20.88C16.4246 21.124 16.09 21.54 16.0057 22.0387L15.7207 23.7453C15.6002 24.4693 14.9713 25 14.2353 25H10.764C10.028 25 9.39908 24.4693 9.27865 23.7467L8.99361 22.0387C8.91064 21.54 8.5761 21.124 8.13182 20.8787C8.03259 20.8241 7.93444 20.7677 7.83742 20.7093C7.40251 20.448 6.87392 20.3667 6.39753 20.544L4.76896 21.152C4.43539 21.2767 4.06824 21.2795 3.7328 21.1599C3.39736 21.0402 3.11537 20.8059 2.93698 20.4987L1.20135 17.5027C1.0233 17.1951 0.960543 16.8345 1.02425 16.4851C1.08796 16.1357 1.27401 15.8202 1.54928 15.5947L2.89282 14.492C3.28357 14.172 3.47761 13.6747 3.46824 13.1693C3.46615 13.056 3.46615 12.9427 3.46824 12.8293C3.47761 12.3253 3.28357 11.8293 2.89282 11.5093L1.54928 10.4053C1.27434 10.1799 1.08851 9.86458 1.02481 9.5155C0.961109 9.16642 1.02366 8.80614 1.20135 8.49867L2.93698 5.50267C3.11521 5.19485 3.39733 4.96008 3.73308 4.84018C4.06884 4.72029 4.4364 4.72306 4.7703 4.848L6.39753 5.456C6.87392 5.63333 7.40251 5.552 7.83742 5.29067C7.93377 5.232 8.03279 5.17467 8.13182 5.12C8.5761 4.876 8.91064 4.46 8.99361 3.96133L9.27998 2.25333Z" stroke="#20225C" stroke-width="1.5" stroke-linecap="round" stroke-linejoin="round"/>
</svg>
