<svg width="32" height="34" viewBox="0 0 32 34" fill="none" xmlns="http://www.w3.org/2000/svg">
<path d="M20.308 12.308V17.2311C20.308 17.3943 20.2432 17.5509 20.1278 17.6663C20.0124 17.7817 19.8559 17.8465 19.6926 17.8465C18.2237 17.8465 16.815 18.43 15.7764 19.4687C14.7377 20.5074 14.1542 21.9161 14.1542 23.385C14.1542 23.5482 14.0893 23.7047 13.9739 23.8201C13.8585 23.9355 13.702 24.0004 13.5388 24.0004C13.3756 24.0004 13.2191 23.9355 13.1037 23.8201C12.9882 23.7047 12.9234 23.5482 12.9234 23.385C12.923 22.299 13.1839 21.2288 13.6841 20.2649C14.1843 19.3009 14.9091 18.4715 15.7973 17.8465H7.38495V23.385C7.38495 24.3642 7.77396 25.3034 8.4664 25.9958C9.15884 26.6883 10.098 27.0773 11.0773 27.0773H20.308C21.2873 27.0773 22.2264 26.6883 22.9189 25.9958C23.6113 25.3034 24.0003 24.3642 24.0003 23.385C24.0003 11.4034 24.2219 11.785 23.3849 10.9665C23.1276 10.7135 22.8004 10.5432 22.4456 10.4776C22.0907 10.4119 21.7243 10.4539 21.3934 10.5982C21.0626 10.7424 20.7825 10.9823 20.5891 11.287C20.3956 11.5917 20.2978 11.9473 20.308 12.308Z" fill="white"/>
<path d="M21.5384 28.308H9.84606C9.16633 28.308 8.6153 28.859 8.6153 29.5387V32.0003C8.6153 32.68 9.16633 33.231 9.84606 33.231H21.5384C22.2181 33.231 22.7691 32.68 22.7691 32.0003V29.5387C22.7691 28.859 22.2181 28.308 21.5384 28.308Z" fill="white"/>
<path d="M19.0766 15.3846H7.38429C7.22108 15.3846 7.06456 15.3198 6.94915 15.2044C6.83374 15.089 6.76891 14.9324 6.76891 14.7692C6.76891 14.2796 6.5744 13.81 6.22818 13.4638C5.88196 13.1176 5.41238 12.9231 4.92275 12.9231C4.75954 12.9231 4.60302 12.8582 4.48761 12.7428C4.3722 12.6274 4.30737 12.4709 4.30737 12.3077V6.15384C4.30737 5.99063 4.3722 5.8341 4.48761 5.71869C4.60302 5.60329 4.75954 5.53845 4.92275 5.53845C5.40921 5.53803 5.87583 5.34563 6.22121 5.00307C6.34429 4.87999 6.72583 4.92307 3.0766 4.92307V14.7692C3.0766 15.2589 3.2711 15.7284 3.61732 16.0746C3.96355 16.4209 4.43312 16.6154 4.92275 16.6154H19.0766V15.3846Z" fill="white"/>
<path d="M25.8464 11.9566C26.0438 11.8674 26.2501 11.7994 26.4618 11.7535V6.70736C25.8907 6.5919 25.3651 6.31413 24.9479 5.90736C24.6587 5.62505 24.425 5.29109 24.2587 4.92274H18.5048C20.9664 7.73505 19.3725 12.9227 16.0002 12.9227C12.6279 12.9227 11.0772 7.72889 13.5018 4.92274C7.66793 4.92274 7.74177 4.86736 7.74177 4.92274C7.54456 5.37506 7.24146 5.77332 6.85803 6.08392C6.47461 6.39451 6.0221 6.60834 5.5387 6.70736V11.7535C6.13001 11.8741 6.67281 12.1659 7.09955 12.5927C7.52628 13.0194 7.8181 13.5622 7.9387 14.1535H19.0772C19.0772 12.4304 18.8802 11.2427 19.9756 10.135C20.4056 9.70399 20.9538 9.41019 21.5508 9.29081C22.1478 9.17143 22.7668 9.23186 23.3295 9.46443C23.8921 9.69701 24.3731 10.0913 24.7116 10.5973C25.0501 11.1034 25.2309 11.6985 25.231 12.3074C25.4214 12.1663 25.628 12.0486 25.8464 11.9566Z" fill="white"/>
<path d="M25.7787 5.00341C26.1241 5.34597 26.5907 5.53837 27.0771 5.53879C27.2404 5.53879 27.3969 5.60363 27.5123 5.71904C27.6277 5.83444 27.6925 5.99097 27.6925 6.15418V12.308C27.6925 12.4712 27.6277 12.6278 27.5123 12.7432C27.3969 12.8586 27.2404 12.9234 27.0771 12.9234C26.8338 12.9228 26.5926 12.9704 26.3677 13.0633C26.1427 13.1562 25.9384 13.2927 25.7664 13.4649C25.0895 14.1542 25.231 14.7696 25.231 16.6157C27.2371 16.6157 27.2371 16.6157 27.5571 16.548C27.9485 16.4426 28.2943 16.2114 28.5412 15.89C28.7881 15.5686 28.9224 15.1749 28.9233 14.7696V4.92341C25.3725 4.92341 25.6371 4.88649 25.7787 5.00341Z" fill="white"/>
<path d="M30.1538 0H1.84615C1.35652 0 0.886947 0.194505 0.540726 0.540726C0.194505 0.886947 0 1.35652 0 1.84615V6.76923C0 7.25886 0.194505 7.72844 0.540726 8.07466C0.886947 8.42088 1.35652 8.61538 1.84615 8.61538V4.92308C1.68294 4.92308 1.52642 4.85824 1.41101 4.74284C1.2956 4.62743 1.23077 4.4709 1.23077 4.30769C1.23077 4.14448 1.2956 3.98796 1.41101 3.87255C1.52642 3.75714 1.68294 3.69231 1.84615 3.69231H30.1538C30.3171 3.69231 30.4736 3.75714 30.589 3.87255C30.7044 3.98796 30.7692 4.14448 30.7692 4.30769C30.7692 4.4709 30.7044 4.62743 30.589 4.74284C30.4736 4.85824 30.3171 4.92308 30.1538 4.92308V8.61538C30.6435 8.61538 31.1131 8.42088 31.4593 8.07466C31.8055 7.72844 32 7.25886 32 6.76923V1.84615C32 1.35652 31.8055 0.886947 31.4593 0.540726C31.1131 0.194505 30.6435 0 30.1538 0Z" fill="white"/>
<path d="M16.0004 11.692C17.3598 11.692 18.4619 10.1767 18.4619 8.30743C18.4619 6.43816 17.3598 4.92281 16.0004 4.92281C14.6409 4.92281 13.5388 6.43816 13.5388 8.30743C13.5388 10.1767 14.6409 11.692 16.0004 11.692Z" fill="white"/>
</svg>
